STARTFONT 2.1
COMMENT
COMMENT Converted from OpenType font "Patriot-Normal.otf" by "otf2bdf 3.0".
COMMENT
FONT -FreeType-Patriot Normal-Medium-R-Normal--33-240-100-100-P-156-ISO10646-1
SIZE 24 100 100
FONTBOUNDINGBOX 52 44 -12 -9
STARTPROPERTIES 19
FOUNDRY "FreeType"
FAMILY_NAME "Patriot Normal"
WEIGHT_NAME "Medium"
SLANT "R"
SETWIDTH_NAME "Normal"
ADD_STYLE_NAME ""
PIXEL_SIZE 33
POINT_SIZE 240
RESOLUTION_X 100
RESOLUTION_Y 100
SPACING "P"
AVERAGE_WIDTH 156
CHARSET_REGISTRY "ISO10646"
CHARSET_ENCODING "1"
FONT_ASCENT 33
FONT_DESCENT 6
COPYRIGHT "Copyright © 2020 by Behalf Studio. All rights reserved."
_OTF_FONTFILE "Patriot-Normal.otf"
_OTF_PSNAME "Patriot-Normal"
ENDPROPERTIES
CHARS 426
STARTCHAR 0020
ENCODING 32
SWIDTH 330 0
DWIDTH 11 0
BBX 0 0 0 0
BITMAP
ENDCHAR
STARTCHAR 0021
ENCODING 33
SWIDTH 240 0
DWIDTH 8 0
BBX 4 23 2 0
BITMAP
60
60
60
60
60
60
60
60
60
60
60
60
60
60
60
00
00
00
00
F0
F0
F0
F0
ENDCHAR
STARTCHAR 0022
ENCODING 34
SWIDTH 270 0
DWIDTH 9 0
BBX 6 7 2 16
BITMAP
CC
CC
CC
CC
CC
CC
CC
ENDCHAR
STARTCHAR 0023
ENCODING 35
SWIDTH 600 0
DWIDTH 20 0
BBX 17 23 2 0
BITMAP
060600
060600
060E00
060C00
060C00
0E0C00
0C0C00
7FFF80
7FFF80
0C0C00
0C1800
0C1800
1C1800
181800
FFFF00
FFFF00
181800
183800
183000
183000
303000
303000
303000
ENDCHAR
STARTCHAR 0024
ENCODING 36
SWIDTH 510 0
DWIDTH 17 0
BBX 14 29 2 -3
BITMAP
0300
0300
0780
1FE0
3FF0
7338
7338
6318
6310
7300
3B00
3F00
1F00
07C0
03E0
03F0
0338
031C
031C
031C
C31C
E31C
E31C
7B38
3FF0
1FE0
0300
0300
0300
ENDCHAR
STARTCHAR 0025
ENCODING 37
SWIDTH 840 0
DWIDTH 28 0
BBX 24 24 2 -1
BITMAP
0E0000
3F8018
71C030
E0E060
C060E0
C060C0
C06180
C0E380
E0C300
7FC600
1F0E00
000C00
001800
003020
0071FC
0063CE
00C307
01C703
018603
030603
070703
060307
0C03FE
1801FC
ENDCHAR
STARTCHAR 0026
ENCODING 38
SWIDTH 630 0
DWIDTH 21 0
BBX 18 24 2 0
BITMAP
038000
1FE000
3FF000
783800
701C00
601000
600000
600000
700000
780000
3FFFC0
1FFFC0
3FFFC0
700300
E00700
E00700
C00700
C00600
C00E00
E00E00
701C00
783C00
3FF800
0FE000
ENDCHAR
STARTCHAR 0027
ENCODING 39
SWIDTH 150 0
DWIDTH 5 0
BBX 2 7 2 16
BITMAP
C0
C0
C0
C0
C0
C0
C0
ENDCHAR
STARTCHAR 0028
ENCODING 40
SWIDTH 300 0
DWIDTH 10 0
BBX 7 30 2 -4
BITMAP
0E
0C
1C
18
30
30
60
60
60
C0
C0
C0
C0
C0
C0
C0
C0
C0
C0
C0
C0
60
60
60
30
30
18
1C
0C
0C
ENDCHAR
STARTCHAR 0029
ENCODING 41
SWIDTH 300 0
DWIDTH 10 0
BBX 7 30 2 -4
BITMAP
C0
E0
60
70
30
18
18
1C
0C
0C
0C
0C
06
06
06
06
06
06
0C
0C
0C
0C
1C
18
18
30
30
60
E0
C0
ENDCHAR
STARTCHAR 002A
ENCODING 42
SWIDTH 450 0
DWIDTH 15 0
BBX 11 11 2 12
BITMAP
0400
0E00
0E00
0E00
F5E0
FFE0
0E00
1F00
3B80
3B80
31C0
ENDCHAR
STARTCHAR 002B
ENCODING 43
SWIDTH 540 0
DWIDTH 18 0
BBX 15 14 2 4
BITMAP
0300
0300
0300
0300
0300
0300
FFFE
FFFE
0300
0300
0300
0300
0300
0300
ENDCHAR
STARTCHAR 002C
ENCODING 44
SWIDTH 240 0
DWIDTH 8 0
BBX 5 7 2 -4
BITMAP
38
30
70
60
60
C0
C0
ENDCHAR
STARTCHAR 002D
ENCODING 45
SWIDTH 420 0
DWIDTH 14 0
BBX 11 2 2 7
BITMAP
FFE0
FFE0
ENDCHAR
STARTCHAR 002E
ENCODING 46
SWIDTH 240 0
DWIDTH 8 0
BBX 4 4 2 0
BITMAP
F0
F0
F0
F0
ENDCHAR
STARTCHAR 002F
ENCODING 47
SWIDTH 360 0
DWIDTH 12 0
BBX 9 25 2 -1
BITMAP
0180
0300
0300
0300
0700
0600
0600
0600
0C00
0C00
0C00
1C00
1800
1800
1800
3000
3000
3000
7000
6000
6000
6000
C000
C000
C000
ENDCHAR
STARTCHAR 0030
ENCODING 48
SWIDTH 690 0
DWIDTH 23 0
BBX 21 25 1 -1
BITMAP
00F800
07FF00
0FDF80
1E01C0
3800E0
300070
700070
600030
E00038
E00018
E00018
C00018
C00018
C00018
E00018
E00038
600038
600030
700070
380060
3C01E0
1E03C0
0FFF80
03FE00
002000
ENDCHAR
STARTCHAR 0031
ENCODING 49
SWIDTH 270 0
DWIDTH 9 0
BBX 6 23 1 0
BITMAP
0C
0C
FC
FC
0C
0C
0C
0C
0C
0C
0C
0C
0C
0C
0C
0C
0C
0C
0C
0C
0C
0C
0C
ENDCHAR
STARTCHAR 0032
ENCODING 50
SWIDTH 510 0
DWIDTH 17 0
BBX 16 24 1 0
BITMAP
03C0
1FF0
3EF8
781C
700E
E00E
E006
E006
0006
000E
000C
001C
0038
0038
0070
00E0
01C0
0380
0700
0E00
1C00
3800
7FFF
FFFF
ENDCHAR
STARTCHAR 0033
ENCODING 51
SWIDTH 510 0
DWIDTH 17 0
BBX 15 24 1 -1
BITMAP
FFFC
FFF8
0070
00E0
01C0
0380
0700
0FE0
1FF0
7878
201C
000E
000E
0006
0006
0006
0006
000E
000E
E01C
7038
3FF8
1FE0
0100
ENDCHAR
STARTCHAR 0034
ENCODING 52
SWIDTH 510 0
DWIDTH 17 0
BBX 17 23 0 0
BITMAP
007C00
03FC00
07CC00
0F0C00
1C0C00
180C00
380C00
300C00
700C00
600C00
600C00
600C00
E00C00
FFFF80
FFFF80
FFFF80
000C00
000C00
000C00
000C00
000C00
000C00
000C00
ENDCHAR
STARTCHAR 0035
ENCODING 53
SWIDTH 510 0
DWIDTH 17 0
BBX 15 24 2 -1
BITMAP
FFFC
FFFC
E000
C000
C000
C000
C000
CFC0
FFF0
F878
E01C
401C
000E
000E
000E
000E
000E
000C
001C
C01C
F078
7FF0
3FE0
0200
ENDCHAR
STARTCHAR 0036
ENCODING 54
SWIDTH 600 0
DWIDTH 20 0
BBX 18 24 1 -1
BITMAP
00E000
00C000
01C000
038000
030000
070000
0EF000
1FFC00
1F3E00
380700
700380
700180
6001C0
E001C0
E000C0
E000C0
6001C0
6001C0
700380
380380
3C0F00
1FFE00
07F800
004000
ENDCHAR
STARTCHAR 0037
ENCODING 55
SWIDTH 420 0
DWIDTH 14 0
BBX 14 23 1 0
BITMAP
FFFC
FFF8
0038
0030
0070
0070
0060
00E0
00C0
7FF0
7FF0
0180
0380
0300
0700
0600
0600
0E00
0C00
1C00
1800
1800
3800
ENDCHAR
STARTCHAR 0038
ENCODING 56
SWIDTH 540 0
DWIDTH 18 0
BBX 17 25 1 -1
BITMAP
03C000
07F000
0E3800
1C1800
181C00
181C00
1C1C00
0C3800
0FF000
0FF800
3E3C00
780E00
700700
E00300
C00380
C00380
C00380
C00380
E00380
600700
700700
381E00
1FFC00
0FF800
008000
ENDCHAR
STARTCHAR 0039
ENCODING 57
SWIDTH 570 0
DWIDTH 19 0
BBX 18 24 1 0
BITMAP
03E000
0FFC00
1F7E00
380F00
700380
600380
E00180
E001C0
C001C0
C001C0
E00180
E00180
700380
700700
3C0F00
1FFE00
0FFC00
009C00
003800
003000
007000
00E000
01C000
018000
ENDCHAR
STARTCHAR 003A
ENCODING 58
SWIDTH 240 0
DWIDTH 8 0
BBX 4 16 2 0
BITMAP
60
F0
F0
F0
60
00
00
00
00
00
00
00
F0
F0
F0
F0
ENDCHAR
STARTCHAR 003B
ENCODING 59
SWIDTH 270 0
DWIDTH 9 0
BBX 6 20 2 -4
BITMAP
30
78
7C
78
30
00
00
00
00
00
00
00
00
38
30
70
60
60
C0
C0
ENDCHAR
STARTCHAR 003C
ENCODING 60
SWIDTH 540 0
DWIDTH 18 0
BBX 15 13 2 4
BITMAP
0006
003E
00F8
07C0
3F00
F800
C000
F000
3E00
0FC0
01F8
003E
000E
ENDCHAR
STARTCHAR 003D
ENCODING 61
SWIDTH 540 0
DWIDTH 18 0
BBX 15 8 2 7
BITMAP
FFFE
FFFE
0000
0000
0000
0000
FFFE
FFFE
ENDCHAR
STARTCHAR 003E
ENCODING 62
SWIDTH 540 0
DWIDTH 18 0
BBX 15 13 2 4
BITMAP
8000
F000
7E00
0F80
01F0
007E
000E
003E
01F8
07C0
3E00
F800
C000
ENDCHAR
STARTCHAR 003F
ENCODING 63
SWIDTH 390 0
DWIDTH 13 0
BBX 10 24 2 0
BITMAP
0C00
3F80
7F80
E1C0
C0C0
40C0
01C0
0180
0380
0300
0600
0E00
0C00
1C00
1C00
1800
1800
0000
0000
0000
1C00
3E00
3E00
1C00
ENDCHAR
STARTCHAR 0040
ENCODING 64
SWIDTH 780 0
DWIDTH 26 0
BBX 23 24 2 0
BITMAP
007C00
03FF80
0781E0
0C0070
180018
30001C
60380C
60FD0C
C1C704
C18306
C38306
C30304
C3030C
C3030C
C38718
C1CF18
C1FBF0
6060C0
700000
300000
180038
0E0070
07C3E0
01FF80
ENDCHAR
STARTCHAR 0041
ENCODING 65
SWIDTH 540 0
DWIDTH 18 0
BBX 16 24 2 0
BITMAP
0780
3FE0
7DF0
7070
E038
E018
C018
C018
C018
C018
C018
C018
C018
C018
C018
C018
C018
C018
C018
C018
C018
C018
FFFF
FFFF
ENDCHAR
STARTCHAR 0042
ENCODING 66
SWIDTH 570 0
DWIDTH 19 0
BBX 18 23 1 0
BITMAP
3FFC00
3FFE00
380F00
380380
380380
380180
380380
380380
380380
380F00
FFFE00
FFFE00
380F00
380380
380180
3801C0
3801C0
3801C0
380180
380380
381F00
3FFE00
3FF800
ENDCHAR
STARTCHAR 0043
ENCODING 67
SWIDTH 660 0
DWIDTH 22 0
BBX 21 25 1 -1
BITMAP
007E00
01FFC0
07F7E0
0F00F8
1C0038
380010
700000
700000
600000
E00000
E00000
E00000
E00000
E00000
E00000
E00000
600000
700000
380000
3C0018
1E0038
0F80F0
07FFE0
01FF80
000800
ENDCHAR
STARTCHAR 0044
ENCODING 68
SWIDTH 630 0
DWIDTH 21 0
BBX 18 23 2 0
BITMAP
FFE000
FFF800
C07C00
C00E00
C00700
C00380
C00380
C001C0
C001C0
C001C0
C000C0
C000C0
C000C0
C001C0
C001C0
C00180
C00380
C00380
C00700
C01E00
C1FC00
FFF000
FFC000
ENDCHAR
STARTCHAR 0045
ENCODING 69
SWIDTH 480 0
DWIDTH 16 0
BBX 15 23 1 0
BITMAP
3FE0
3FE0
3800
3800
3800
3800
3800
3800
3800
3800
FFF8
FFF8
3800
3800
3800
3800
3800
3800
3800
3800
3800
3FFE
3FFE
ENDCHAR
STARTCHAR 0046
ENCODING 70
SWIDTH 420 0
DWIDTH 14 0
BBX 14 23 1 0
BITMAP
1FFC
1FFC
1800
1800
1800
1800
1800
1800
1800
1800
1800
FFF8
FFF8
1800
1800
1800
1800
1800
1800
1800
1800
1800
1800
ENDCHAR
STARTCHAR 0047
ENCODING 71
SWIDTH 810 0
DWIDTH 27 0
BBX 27 25 1 -1
BITMAP
003E0000
01FFC000
07F7F000
0F007800
1C003C00
38001000
70000000
70000000
60000000
E0000000
E0000000
E00FFFE0
E00FFFE0
E0000300
E0000300
E0000700
60000700
70000600
38000E00
3C001C00
1E003C00
0F80F800
03FFE000
01FF8000
00080000
ENDCHAR
STARTCHAR 0048
ENCODING 72
SWIDTH 540 0
DWIDTH 18 0
BBX 16 23 1 0
BITMAP
3807
3807
3807
3807
3807
3807
3807
3807
3807
FFFF
FFFF
3807
3807
3807
3807
3807
3807
3807
3807
3807
3807
3807
3807
ENDCHAR
STARTCHAR 0049
ENCODING 73
SWIDTH 150 0
DWIDTH 5 0
BBX 7 26 -1 0
BITMAP
10
10
18
FE
38
3C
24
00
00
00
00
00
18
18
18
18
18
18
18
18
18
18
18
18
18
18
ENDCHAR
STARTCHAR 004A
ENCODING 74
SWIDTH 450 0
DWIDTH 15 0
BBX 13 24 1 -1
BITMAP
01F8
01F8
0038
0038
0038
0038
0038
0038
0038
0038
0038
0038
0038
0038
0038
0038
0030
0030
C070
C070
E0E0
7FE0
3F80
0400
ENDCHAR
STARTCHAR 004B
ENCODING 75
SWIDTH 510 0
DWIDTH 17 0
BBX 15 23 1 0
BITMAP
3818
3818
3818
3818
3818
3818
3818
3838
3838
38F0
FFE0
FFF0
3878
381C
380C
380E
380E
380E
380E
380E
380E
380E
380E
ENDCHAR
STARTCHAR 004C
ENCODING 76
SWIDTH 420 0
DWIDTH 14 0
BBX 11 23 2 0
BITMAP
C000
C000
C000
C000
C000
C000
C000
C000
C000
C000
C000
C000
C000
C000
C000
C000
C000
C000
C000
C000
C000
FFE0
FFE0
ENDCHAR
STARTCHAR 004D
ENCODING 77
SWIDTH 840 0
DWIDTH 28 0
BBX 26 24 1 0
BITMAP
C0080000
E00C01C0
F00F01C0
780F81C0
7E0FC1C0
7F0EE1C0
778E79C0
71CE3DC0
70FE1FC0
707E07C0
701E03C0
700E01C0
700E01C0
700E01C0
700E01C0
700E01C0
700E01C0
700E01C0
700E01C0
700E01C0
700E01C0
700E01C0
700E01C0
700E01C0
ENDCHAR
STARTCHAR 004E
ENCODING 78
SWIDTH 480 0
DWIDTH 16 0
BBX 14 24 1 0
BITMAP
C000
E00C
F00C
780C
7E0C
6F0C
678C
61CC
60FC
607C
603C
600C
600C
600C
600C
600C
600C
600C
600C
600C
600C
600C
600C
600C
ENDCHAR
STARTCHAR 004F
ENCODING 79
SWIDTH 810 0
DWIDTH 27 0
BBX 25 25 1 -1
BITMAP
003E0000
01FFC000
07F7F000
0F007800
1C001C00
38000E00
70000700
70000700
60000300
E0000380
E0000380
E0000380
E0000380
E0000380
E0000380
E0000380
60000300
70000700
38000E00
3C001E00
1E003C00
0F80F800
03FFF000
01FFC000
00080000
ENDCHAR
STARTCHAR 0050
ENCODING 80
SWIDTH 540 0
DWIDTH 18 0
BBX 17 23 1 0
BITMAP
3FF800
3FFC00
301E00
300700
300300
300380
300380
300380
300380
300700
300F00
307E00
FFFC00
FFE000
300000
300000
300000
300000
300000
300000
300000
300000
300000
ENDCHAR
STARTCHAR 0051
ENCODING 81
SWIDTH 810 0
DWIDTH 27 0
BBX 25 25 1 -1
BITMAP
003E0000
01FFC000
07F7F000
0F007800
1C001C00
38000E00
70000700
70000700
60000300
E0000380
E0000380
E0000380
E0000380
E0000380
E0000380
E0000380
60000300
7000C700
3800EE00
3C007E00
1E003C00
0F80FC00
03FFFE00
01FFC600
00080000
ENDCHAR
STARTCHAR 0052
ENCODING 82
SWIDTH 570 0
DWIDTH 19 0
BBX 17 23 1 0
BITMAP
3FF800
3FFE00
380F00
380700
380380
380380
380380
380380
380380
380700
380F00
FFFE00
FFF800
FFFC00
381C00
380E00
380600
380700
380700
380700
380700
380700
380700
ENDCHAR
STARTCHAR 0053
ENCODING 83
SWIDTH 480 0
DWIDTH 16 0
BBX 14 25 1 -1
BITMAP
0780
1FE0
3FF0
7038
7018
701C
7010
7000
3800
1C00
0F00
07C0
01E0
00F0
0038
001C
001C
000C
E00C
E01C
701C
7838
3FF8
1FE0
0100
ENDCHAR
STARTCHAR 0054
ENCODING 84
SWIDTH 480 0
DWIDTH 16 0
BBX 15 23 1 0
BITMAP
FFFE
FFFE
0300
0300
0300
0300
0300
0300
0300
0300
0300
0300
0300
0300
0300
0300
0300
0300
0300
0300
0300
0300
0300
ENDCHAR
STARTCHAR 0055
ENCODING 85
SWIDTH 480 0
DWIDTH 16 0
BBX 14 24 1 -1
BITMAP
E00C
E00C
E00C
E00C
E00C
E00C
E00C
E00C
E00C
E00C
E00C
E00C
E00C
E00C
E00C
E00C
E00C
601C
601C
7018
3838
3FF0
0FE0
0100
ENDCHAR
STARTCHAR 0056
ENCODING 86
SWIDTH 450 0
DWIDTH 15 0
BBX 14 23 0 0
BITMAP
E01C
E01C
E01C
E01C
E01C
E01C
E01C
E01C
E01C
E01C
E018
E018
E018
E018
6018
6038
7038
7030
3870
3860
1CE0
0FC0
0780
ENDCHAR
STARTCHAR 0057
ENCODING 87
SWIDTH 750 0
DWIDTH 25 0
BBX 24 23 0 0
BITMAP
E01C03
E01C03
E01C03
E01C03
E01C03
E01C03
E01C03
E01C03
E01C03
E01C03
E01C03
E01C03
E01C03
E01C07
601C07
603C07
703C06
703E0E
38760E
38671C
1CE39C
0FC1F8
0780F0
ENDCHAR
STARTCHAR 0058
ENCODING 88
SWIDTH 480 0
DWIDTH 16 0
BBX 13 23 2 0
BITMAP
C018
C018
C018
C018
C018
C018
E038
E070
78F0
3FE0
3FE0
70F0
E038
E038
C018
C018
C018
C018
C018
C018
C018
C018
C018
ENDCHAR
STARTCHAR 0059
ENCODING 89
SWIDTH 480 0
DWIDTH 16 0
BBX 14 23 1 0
BITMAP
E01C
E01C
E01C
E01C
E01C
E01C
E01C
E01C
E01C
E01C
E01C
E01C
601C
7038
7878
3FF0
0FE0
0300
0300
0300
0300
0300
0300
ENDCHAR
STARTCHAR 005A
ENCODING 90
SWIDTH 480 0
DWIDTH 16 0
BBX 15 23 1 0
BITMAP
FFFE
FFFC
001C
0038
0038
0070
0060
00E0
01C0
01C0
0380
0300
0700
0E00
0E00
1C00
1800
3800
7000
7000
E000
FFFC
FFFC
ENDCHAR
STARTCHAR 005B
ENCODING 91
SWIDTH 210 0
DWIDTH 7 0
BBX 4 31 2 -4
BITMAP
F0
F0
C0
C0
C0
C0
C0
C0
C0
C0
C0
C0
C0
C0
C0
C0
C0
C0
C0
C0
C0
C0
C0
C0
C0
C0
C0
C0
C0
C0
F0
ENDCHAR
STARTCHAR 005C
ENCODING 92
SWIDTH 360 0
DWIDTH 12 0
BBX 9 25 2 -1
BITMAP
C000
C000
E000
6000
6000
6000
3000
3000
3000
3800
1800
1800
1800
0C00
0C00
0C00
0E00
0600
0600
0600
0300
0300
0300
0380
0180
ENDCHAR
STARTCHAR 005D
ENCODING 93
SWIDTH 210 0
DWIDTH 7 0
BBX 4 31 2 -4
BITMAP
F0
F0
30
30
30
30
30
30
30
30
30
30
30
30
30
30
30
30
30
30
30
30
30
30
30
30
30
30
30
30
F0
ENDCHAR
STARTCHAR 005E
ENCODING 94
SWIDTH 450 0
DWIDTH 15 0
BBX 11 8 2 12
BITMAP
0E00
1F00
1B00
3980
31C0
60C0
6060
C060
ENDCHAR
STARTCHAR 005F
ENCODING 95
SWIDTH 510 0
DWIDTH 17 0
BBX 14 1 2 -3
BITMAP
FFFC
ENDCHAR
STARTCHAR 0060
ENCODING 96
SWIDTH 150 0
DWIDTH 5 0
BBX 5 5 0 25
BITMAP
C0
60
30
30
18
ENDCHAR
STARTCHAR 0061
ENCODING 97
SWIDTH 540 0
DWIDTH 18 0
BBX 16 24 2 0
BITMAP
0780
3FE0
7DF0
7070
E038
E018
C018
C018
C018
C018
C018
C018
C018
C018
C018
C018
C018
C018
C018
C018
C018
C018
FFFF
FFFF
ENDCHAR
STARTCHAR 0062
ENCODING 98
SWIDTH 570 0
DWIDTH 19 0
BBX 18 23 1 0
BITMAP
3FFC00
3FFE00
380F00
380380
380380
380180
380380
380380
380380
380F00
FFFE00
FFFE00
380F00
380380
380180
3801C0
3801C0
3801C0
380180
380380
381F00
3FFE00
3FF800
ENDCHAR
STARTCHAR 0063
ENCODING 99
SWIDTH 660 0
DWIDTH 22 0
BBX 21 25 1 -1
BITMAP
007E00
01FFC0
07F7E0
0F00F8
1C0038
380010
700000
700000
600000
E00000
E00000
E00000
E00000
E00000
E00000
E00000
600000
700000
380000
3C0018
1E0038
0F80F0
07FFE0
01FF80
000800
ENDCHAR
STARTCHAR 0064
ENCODING 100
SWIDTH 630 0
DWIDTH 21 0
BBX 18 23 2 0
BITMAP
FFE000
FFF800
C07C00
C00E00
C00700
C00380
C00380
C001C0
C001C0
C001C0
C000C0
C000C0
C000C0
C001C0
C001C0
C00180
C00380
C00380
C00700
C01E00
C1FC00
FFF000
FFC000
ENDCHAR
STARTCHAR 0065
ENCODING 101
SWIDTH 480 0
DWIDTH 16 0
BBX 15 23 1 0
BITMAP
3FE0
3FE0
3800
3800
3800
3800
3800
3800
3800
3800
FFF8
FFF8
3800
3800
3800
3800
3800
3800
3800
3800
3800
3FFE
3FFE
ENDCHAR
STARTCHAR 0066
ENCODING 102
SWIDTH 420 0
DWIDTH 14 0
BBX 14 23 1 0
BITMAP
1FFC
1FFC
1800
1800
1800
1800
1800
1800
1800
1800
1800
FFF8
FFF8
1800
1800
1800
1800
1800
1800
1800
1800
1800
1800
ENDCHAR
STARTCHAR 0067
ENCODING 103
SWIDTH 810 0
DWIDTH 27 0
BBX 27 25 1 -1
BITMAP
003E0000
01FFC000
07F7F000
0F007800
1C003C00
38001000
70000000
70000000
60000000
E0000000
E0000000
E00FFFE0
E00FFFE0
E0000300
E0000300
E0000700
60000700
70000600
38000E00
3C001C00
1E003C00
0F80F800
03FFE000
01FF8000
00080000
ENDCHAR
STARTCHAR 0068
ENCODING 104
SWIDTH 540 0
DWIDTH 18 0
BBX 16 23 1 0
BITMAP
3807
3807
3807
3807
3807
3807
3807
3807
3807
FFFF
FFFF
3807
3807
3807
3807
3807
3807
3807
3807
3807
3807
3807
3807
ENDCHAR
STARTCHAR 0069
ENCODING 105
SWIDTH 150 0
DWIDTH 5 0
BBX 7 26 -1 0
BITMAP
10
10
18
FE
38
3C
24
00
00
00
00
00
18
18
18
18
18
18
18
18
18
18
18
18
18
18
ENDCHAR
STARTCHAR 006A
ENCODING 106
SWIDTH 450 0
DWIDTH 15 0
BBX 13 24 1 -1
BITMAP
01F8
01F8
0038
0038
0038
0038
0038
0038
0038
0038
0038
0038
0038
0038
0038
0038
0030
0030
C070
C070
E0E0
7FE0
3F80
0400
ENDCHAR
STARTCHAR 006B
ENCODING 107
SWIDTH 510 0
DWIDTH 17 0
BBX 15 23 1 0
BITMAP
3818
3818
3818
3818
3818
3818
3818
3838
3838
38F0
FFE0
FFF0
3878
381C
380C
380E
380E
380E
380E
380E
380E
380E
380E
ENDCHAR
STARTCHAR 006C
ENCODING 108
SWIDTH 420 0
DWIDTH 14 0
BBX 11 23 2 0
BITMAP
C000
C000
C000
C000
C000
C000
C000
C000
C000
C000
C000
C000
C000
C000
C000
C000
C000
C000
C000
C000
C000
FFE0
FFE0
ENDCHAR
STARTCHAR 006D
ENCODING 109
SWIDTH 840 0
DWIDTH 28 0
BBX 26 24 1 0
BITMAP
C0080000
E00C01C0
F00F01C0
780F81C0
7E0FC1C0
7F0EE1C0
778E79C0
71CE3DC0
70FE1FC0
707E07C0
701E03C0
700E01C0
700E01C0
700E01C0
700E01C0
700E01C0
700E01C0
700E01C0
700E01C0
700E01C0
700E01C0
700E01C0
700E01C0
700E01C0
ENDCHAR
STARTCHAR 006E
ENCODING 110
SWIDTH 480 0
DWIDTH 16 0
BBX 14 24 1 0
BITMAP
C000
E00C
F00C
780C
7E0C
6F0C
678C
61CC
60FC
607C
603C
600C
600C
600C
600C
600C
600C
600C
600C
600C
600C
600C
600C
600C
ENDCHAR
STARTCHAR 006F
ENCODING 111
SWIDTH 810 0
DWIDTH 27 0
BBX 25 25 1 -1
BITMAP
003E0000
01FFC000
07F7F000
0F007800
1C001C00
38000E00
70000700
70000700
60000300
E0000380
E0000380
E0000380
E0000380
E0000380
E0000380
E0000380
60000300
70000700
38000E00
3C001E00
1E003C00
0F80F800
03FFF000
01FFC000
00080000
ENDCHAR
STARTCHAR 0070
ENCODING 112
SWIDTH 540 0
DWIDTH 18 0
BBX 17 23 1 0
BITMAP
3FF800
3FFC00
301E00
300700
300300
300380
300380
300380
300380
300700
300F00
307E00
FFFC00
FFE000
300000
300000
300000
300000
300000
300000
300000
300000
300000
ENDCHAR
STARTCHAR 0071
ENCODING 113
SWIDTH 810 0
DWIDTH 27 0
BBX 25 25 1 -1
BITMAP
003E0000
01FFC000
07F7F000
0F007800
1C001C00
38000E00
70000700
70000700
60000300
E0000380
E0000380
E0000380
E0000380
E0000380
E0000380
E0000380
60000300
7000C700
3800EE00
3C007E00
1E003C00
0F80FC00
03FFFE00
01FFC600
00080000
ENDCHAR
STARTCHAR 0072
ENCODING 114
SWIDTH 570 0
DWIDTH 19 0
BBX 17 23 1 0
BITMAP
3FF800
3FFE00
380F00
380700
380380
380380
380380
380380
380380
380700
380F00
FFFE00
FFF800
FFFC00
381C00
380E00
380600
380700
380700
380700
380700
380700
380700
ENDCHAR
STARTCHAR 0073
ENCODING 115
SWIDTH 480 0
DWIDTH 16 0
BBX 14 25 1 -1
BITMAP
0780
1FE0
3FF0
7038
7018
701C
7010
7000
3800
1C00
0F00
07C0
01E0
00F0
0038
001C
001C
000C
E00C
E01C
701C
7838
3FF8
1FE0
0100
ENDCHAR
STARTCHAR 0074
ENCODING 116
SWIDTH 480 0
DWIDTH 16 0
BBX 15 23 1 0
BITMAP
FFFE
FFFE
0300
0300
0300
0300
0300
0300
0300
0300
0300
0300
0300
0300
0300
0300
0300
0300
0300
0300
0300
0300
0300
ENDCHAR
STARTCHAR 0075
ENCODING 117
SWIDTH 480 0
DWIDTH 16 0
BBX 14 24 1 -1
BITMAP
E00C
E00C
E00C
E00C
E00C
E00C
E00C
E00C
E00C
E00C
E00C
E00C
E00C
E00C
E00C
E00C
E00C
601C
601C
7018
3838
3FF0
0FE0
0100
ENDCHAR
STARTCHAR 0076
ENCODING 118
SWIDTH 450 0
DWIDTH 15 0
BBX 14 23 0 0
BITMAP
E01C
E01C
E01C
E01C
E01C
E01C
E01C
E01C
E01C
E01C
E018
E018
E018
E018
6018
6038
7038
7030
3870
3860
1CE0
0FC0
0780
ENDCHAR
STARTCHAR 0077
ENCODING 119
SWIDTH 750 0
DWIDTH 25 0
BBX 24 23 0 0
BITMAP
E01C03
E01C03
E01C03
E01C03
E01C03
E01C03
E01C03
E01C03
E01C03
E01C03
E01C03
E01C03
E01C03
E01C07
601C07
603C07
703C06
703E0E
38760E
38671C
1CE39C
0FC1F8
0780F0
ENDCHAR
STARTCHAR 0078
ENCODING 120
SWIDTH 480 0
DWIDTH 16 0
BBX 13 23 2 0
BITMAP
C018
C018
C018
C018
C018
C018
E038
E070
78F0
3FE0
3FE0
70F0
E038
E038
C018
C018
C018
C018
C018
C018
C018
C018
C018
ENDCHAR
STARTCHAR 0079
ENCODING 121
SWIDTH 480 0
DWIDTH 16 0
BBX 14 23 1 0
BITMAP
E01C
E01C
E01C
E01C
E01C
E01C
E01C
E01C
E01C
E01C
E01C
E01C
601C
7038
7878
3FF0
0FE0
0300
0300
0300
0300
0300
0300
ENDCHAR
STARTCHAR 007A
ENCODING 122
SWIDTH 480 0
DWIDTH 16 0
BBX 15 23 1 0
BITMAP
FFFE
FFFC
001C
0038
0038
0070
0060
00E0
01C0
01C0
0380
0300
0700
0E00
0E00
1C00
1800
3800
7000
7000
E000
FFFC
FFFC
ENDCHAR
STARTCHAR 007B
ENCODING 123
SWIDTH 330 0
DWIDTH 11 0
BBX 8 32 2 -5
BITMAP
0F
1F
18
38
38
38
38
38
38
38
38
30
30
30
F0
E0
E0
70
30
30
38
38
38
38
38
38
38
38
38
1C
1F
03
ENDCHAR
STARTCHAR 007C
ENCODING 124
SWIDTH 150 0
DWIDTH 5 0
BBX 1 27 2 -3
BITMAP
80
80
80
80
80
80
80
80
80
80
80
80
80
80
80
80
80
80
80
80
80
80
80
80
80
80
80
ENDCHAR
STARTCHAR 007D
ENCODING 125
SWIDTH 330 0
DWIDTH 11 0
BBX 8 32 2 -5
BITMAP
E0
F0
38
18
18
18
18
18
18
18
18
18
18
18
0E
0F
0F
1C
18
18
18
18
18
18
18
18
18
18
18
78
F0
C0
ENDCHAR
STARTCHAR 007E
ENCODING 126
SWIDTH 510 0
DWIDTH 17 0
BBX 14 3 2 9
BITMAP
FF04
FFFC
01FC
ENDCHAR
STARTCHAR 00A1
ENCODING 161
SWIDTH 240 0
DWIDTH 8 0
BBX 4 24 2 -4
BITMAP
70
F0
F0
F0
00
00
00
00
60
60
60
60
60
60
60
60
60
60
60
60
60
60
60
60
ENDCHAR
STARTCHAR 00A2
ENCODING 162
SWIDTH 510 0
DWIDTH 17 0
BBX 13 20 2 2
BITMAP
0300
0300
0380
1FF0
3F78
7318
6300
E300
C300
C300
C300
C300
C300
E300
6300
3B38
3FF8
0FE0
0300
0300
ENDCHAR
STARTCHAR 00A3
ENCODING 163
SWIDTH 510 0
DWIDTH 17 0
BBX 14 24 2 0
BITMAP
0060
07FC
0FFC
1E00
3800
3800
3000
3000
3000
3800
3800
FFF8
FFF8
1C00
0C00
0E00
0E00
0E00
0E00
0E00
1C00
F800
FFFC
FFFC
ENDCHAR
STARTCHAR 00A4
ENCODING 164
SWIDTH 540 0
DWIDTH 18 0
BBX 15 15 2 3
BITMAP
C004
EFCC
7FF8
3838
6018
600C
600C
600C
600C
601C
7018
3878
7FFC
C78E
0004
ENDCHAR
STARTCHAR 00A5
ENCODING 165
SWIDTH 600 0
DWIDTH 20 0
BBX 17 23 2 0
BITMAP
E00380
700700
700700
380E00
380E00
1C1C00
1C1800
0E3800
0E3000
077000
076000
03E000
3FFE00
3FFE00
01C000
01C000
3FFE00
3FFE00
01C000
01C000
01C000
01C000
01C000
ENDCHAR
STARTCHAR 00A6
ENCODING 166
SWIDTH 150 0
DWIDTH 5 0
BBX 1 27 2 -3
BITMAP
80
80
80
80
80
80
80
80
80
80
80
00
00
00
00
00
00
80
80
80
80
80
80
80
80
80
80
ENDCHAR
STARTCHAR 00A7
ENCODING 167
SWIDTH 450 0
DWIDTH 15 0
BBX 12 28 2 -4
BITMAP
0E00
3F80
7FC0
70E0
6060
6060
7000
3800
1E00
0F80
3FC0
71E0
E060
C070
C070
E060
70E0
3FC0
1E00
0780
03C0
00C0
60E0
E0E0
60E0
7FC0
3F80
0E00
ENDCHAR
STARTCHAR 00A8
ENCODING 168
SWIDTH 330 0
DWIDTH 11 0
BBX 12 5 0 25
BITMAP
2040
70E0
F9F0
F9F0
70E0
ENDCHAR
STARTCHAR 00A9
ENCODING 169
SWIDTH 840 0
DWIDTH 28 0
BBX 24 24 2 -1
BITMAP
007E00
03FFC0
0700F0
1C0038
38001C
30000C
607E06
40FF02
C18183
C30003
C30001
830001
830001
C30001
C30003
C38103
C1C383
60FF06
603C06
30000C
180018
0C0030
0781E0
01FF80
ENDCHAR
STARTCHAR 00AB
ENCODING 171
SWIDTH 510 0
DWIDTH 17 0
BBX 14 15 2 3
BITMAP
071C
0638
0C30
1C60
38E0
31C0
6180
E300
E380
7180
38C0
18E0
1C70
0E30
0718
ENDCHAR
STARTCHAR 00AC
ENCODING 172
SWIDTH 540 0
DWIDTH 18 0
BBX 15 8 2 4
BITMAP
FFFE
FFFE
000E
000E
000E
000E
000E
000E
ENDCHAR
STARTCHAR 00AE
ENCODING 174
SWIDTH 480 0
DWIDTH 16 0
BBX 13 13 2 11
BITMAP
0F80
30C0
6020
CF10
8890
8998
9F18
8918
8990
C990
6020
39C0
0F00
ENDCHAR
STARTCHAR 00AF
ENCODING 175
SWIDTH 270 0
DWIDTH 9 0
BBX 9 2 0 27
BITMAP
FF80
FF80
ENDCHAR
STARTCHAR 00B0
ENCODING 176
SWIDTH 300 0
DWIDTH 10 0
BBX 7 8 2 16
BITMAP
18
7C
C6
82
82
C6
7C
38
ENDCHAR
STARTCHAR 00B1
ENCODING 177
SWIDTH 540 0
DWIDTH 18 0
BBX 15 13 2 4
BITMAP
0300
0300
0300
0300
FFFE
FFFE
0300
0300
0300
0300
0000
FFFE
FFFE
ENDCHAR
STARTCHAR 00B4
ENCODING 180
SWIDTH 150 0
DWIDTH 5 0
BBX 5 5 0 25
BITMAP
18
30
60
60
C0
ENDCHAR
STARTCHAR 00B6
ENCODING 182
SWIDTH 450 0
DWIDTH 15 0
BBX 12 27 2 -3
BITMAP
0330
1F30
7F30
7F30
FF30
FF30
FF30
FF30
FF30
FF30
7F30
3F30
1F30
0330
0330
0330
0330
0330
0330
0330
0330
0330
0330
0330
0330
0330
0330
ENDCHAR
STARTCHAR 00B7
ENCODING 183
SWIDTH 240 0
DWIDTH 8 0
BBX 4 5 2 6
BITMAP
60
F0
F0
F0
60
ENDCHAR
STARTCHAR 00B8
ENCODING 184
SWIDTH 210 0
DWIDTH 7 0
BBX 7 7 0 -7
BITMAP
18
1C
06
06
C6
EE
3C
ENDCHAR
STARTCHAR 00BB
ENCODING 187
SWIDTH 510 0
DWIDTH 17 0
BBX 13 15 2 3
BITMAP
C700
E380
7180
38C0
18E0
0C70
0E38
0718
0638
0E30
1C60
38E0
31C0
6180
E300
ENDCHAR
STARTCHAR 00BF
ENCODING 191
SWIDTH 390 0
DWIDTH 13 0
BBX 10 24 2 -4
BITMAP
0E00
1F00
1F00
0E00
0000
0000
0000
0E00
0E00
0E00
0C00
0C00
1C00
3800
3000
7000
E000
C000
C000
C0C0
E1C0
FF80
7F00
0C00
ENDCHAR
STARTCHAR 00C0
ENCODING 192
SWIDTH 540 0
DWIDTH 18 0
BBX 16 30 2 0
BITMAP
1800
0C00
0600
0600
0300
0000
0780
3FE0
7DF0
7070
E038
E018
C018
C018
C018
C018
C018
C018
C018
C018
C018
C018
C018
C018
C018
C018
C018
C018
FFFF
FFFF
ENDCHAR
STARTCHAR 00C1
ENCODING 193
SWIDTH 540 0
DWIDTH 18 0
BBX 16 30 2 0
BITMAP
00C0
0180
0300
0300
0600
0000
0780
3FE0
7DF0
7070
E038
E018
C018
C018
C018
C018
C018
C018
C018
C018
C018
C018
C018
C018
C018
C018
C018
C018
FFFF
FFFF
ENDCHAR
STARTCHAR 00C2
ENCODING 194
SWIDTH 540 0
DWIDTH 18 0
BBX 16 30 2 0
BITMAP
0700
0F80
1DC0
18C0
3060
0000
0780
3FE0
7DF0
7070
E038
E018
C018
C018
C018
C018
C018
C018
C018
C018
C018
C018
C018
C018
C018
C018
C018
C018
FFFF
FFFF
ENDCHAR
STARTCHAR 00C3
ENCODING 195
SWIDTH 540 0
DWIDTH 18 0
BBX 16 29 2 0
BITMAP
3FC0
37C0
0000
0000
0000
0780
3FE0
7DF0
7070
E038
E018
C018
C018
C018
C018
C018
C018
C018
C018
C018
C018
C018
C018
C018
C018
C018
C018
FFFF
FFFF
ENDCHAR
STARTCHAR 00C4
ENCODING 196
SWIDTH 540 0
DWIDTH 18 0
BBX 16 29 2 1
BITMAP
78F0
78F8
78F0
3870
0000
0780
3FE0
7DF0
7070
E038
E018
C018
C018
C018
C018
C018
C018
C018
C018
C018
C018
C018
C018
C018
C018
C018
C018
FFFF
FFFF
ENDCHAR
STARTCHAR 00C5
ENCODING 197
SWIDTH 540 0
DWIDTH 18 0
BBX 16 32 2 0
BITMAP
0700
0F80
18C0
18C0
18C0
0F80
0200
0000
0780
3FE0
7DF0
7070
E038
E018
C018
C018
C018
C018
C018
C018
C018
C018
C018
C018
C018
C018
C018
C018
C018
C018
FFFF
FFFF
ENDCHAR
STARTCHAR 00C7
ENCODING 199
SWIDTH 660 0
DWIDTH 22 0
BBX 21 31 1 -7
BITMAP
007E00
01FFC0
07F7E0
0F00F8
1C0038
380010
700000
700000
600000
E00000
E00000
E00000
E00000
E00000
E00000
E00000
600000
700000
380000
3C0018
1E0038
0F80F0
07FFE0
01FF80
001800
003800
000C00
000400
008400
00EC00
007800
ENDCHAR
STARTCHAR 00C8
ENCODING 200
SWIDTH 480 0
DWIDTH 16 0
BBX 15 30 1 0
BITMAP
1C00
0C00
0600
0300
0300
0000
0000
3FE0
3FE0
3800
3800
3800
3800
3800
3800
3800
3800
FFF8
FFF8
3800
3800
3800
3800
3800
3800
3800
3800
3800
3FFE
3FFE
ENDCHAR
STARTCHAR 00C9
ENCODING 201
SWIDTH 480 0
DWIDTH 16 0
BBX 15 30 1 0
BITMAP
00C0
0180
0380
0300
0600
0000
0000
3FE0
3FE0
3800
3800
3800
3800
3800
3800
3800
3800
FFF8
FFF8
3800
3800
3800
3800
3800
3800
3800
3800
3800
3FFE
3FFE
ENDCHAR
STARTCHAR 00CA
ENCODING 202
SWIDTH 480 0
DWIDTH 16 0
BBX 15 30 1 0
BITMAP
0700
0F80
0CC0
18E0
3060
0000
0000
3FE0
3FE0
3800
3800
3800
3800
3800
3800
3800
3800
FFF8
FFF8
3800
3800
3800
3800
3800
3800
3800
3800
3800
3FFE
3FFE
ENDCHAR
STARTCHAR 00CB
ENCODING 203
SWIDTH 480 0
DWIDTH 16 0
BBX 15 29 1 1
BITMAP
78F0
7CF8
7CF8
3870
0000
0000
3FE0
3FE0
3800
3800
3800
3800
3800
3800
3800
3800
FFF8
FFF8
3800
3800
3800
3800
3800
3800
3800
3800
3800
3FFE
3FFE
ENDCHAR
STARTCHAR 00CC
ENCODING 204
SWIDTH 150 0
DWIDTH 5 0
BBX 4 21 0 0
BITMAP
C0
E0
60
30
10
00
00
30
30
30
30
30
30
30
30
30
30
30
30
30
30
ENDCHAR
STARTCHAR 00CD
ENCODING 205
SWIDTH 150 0
DWIDTH 5 0
BBX 5 21 1 0
BITMAP
18
38
30
60
C0
00
00
60
60
60
60
60
60
60
60
60
60
60
60
60
60
ENDCHAR
STARTCHAR 00CE
ENCODING 206
SWIDTH 150 0
DWIDTH 5 0
BBX 10 21 -2 0
BITMAP
1E00
1E00
3300
6180
C0C0
0000
0000
0C00
0C00
0C00
0C00
0C00
0C00
0C00
0C00
0C00
0C00
0C00
0C00
0C00
0C00
ENDCHAR
STARTCHAR 00CF
ENCODING 207
SWIDTH 150 0
DWIDTH 5 0
BBX 12 21 -3 0
BITMAP
2000
78F0
F9F0
F9F0
70E0
0000
0000
0600
0600
0600
0600
0600
0600
0600
0600
0600
0600
0600
0600
0600
0600
ENDCHAR
STARTCHAR 00D1
ENCODING 209
SWIDTH 480 0
DWIDTH 16 0
BBX 14 29 1 0
BITMAP
1FE0
1FE0
0000
0000
0000
C000
E00C
F00C
780C
7E0C
6F0C
678C
61CC
60FC
607C
603C
600C
600C
600C
600C
600C
600C
600C
600C
600C
600C
600C
600C
600C
ENDCHAR
STARTCHAR 00D2
ENCODING 210
SWIDTH 810 0
DWIDTH 27 0
BBX 25 31 1 -1
BITMAP
00600000
00300000
00180000
00180000
000C0000
00000000
003E0000
01FFC000
07F7F000
0F007800
1C001C00
38000E00
70000700
70000700
60000300
E0000380
E0000380
E0000380
E0000380
E0000380
E0000380
E0000380
60000300
70000700
38000E00
3C001E00
1E003C00
0F80F800
03FFF000
01FFC000
00080000
ENDCHAR
STARTCHAR 00D3
ENCODING 211
SWIDTH 810 0
DWIDTH 27 0
BBX 25 31 1 -1
BITMAP
00030000
00060000
000C0000
000C0000
00180000
00000000
003E0000
01FFC000
07F7F000
0F007800
1C001C00
38000E00
70000700
70000700
60000300
E0000380
E0000380
E0000380
E0000380
E0000380
E0000380
E0000380
60000300
70000700
38000E00
3C001E00
1E003C00
0F80F800
03FFF000
01FFC000
00080000
ENDCHAR
STARTCHAR 00D4
ENCODING 212
SWIDTH 810 0
DWIDTH 27 0
BBX 25 31 1 -1
BITMAP
001C0000
003E0000
00770000
00630000
00C18000
00000000
003E0000
01FFC000
07F7F000
0F007800
1C001C00
38000E00
70000700
70000700
60000300
E0000380
E0000380
E0000380
E0000380
E0000380
E0000380
E0000380
60000300
70000700
38000E00
3C001E00
1E003C00
0F80F800
03FFF000
01FFC000
00080000
ENDCHAR
STARTCHAR 00D5
ENCODING 213
SWIDTH 810 0
DWIDTH 27 0
BBX 25 30 1 -1
BITMAP
00FF0000
00DF0000
00000000
00000000
00000000
003E0000
01FFC000
07F7F000
0F007800
1C001C00
38000E00
70000700
70000700
60000300
E0000380
E0000380
E0000380
E0000380
E0000380
E0000380
E0000380
60000300
70000700
38000E00
3C001E00
1E003C00
0F80F800
03FFF000
01FFC000
00080000
ENDCHAR
STARTCHAR 00D6
ENCODING 214
SWIDTH 810 0
DWIDTH 27 0
BBX 25 30 1 0
BITMAP
01E3C000
01E3E000
01E3C000
00E1C000
00000000
003E0000
01FFC000
07F7F000
0F007800
1C001C00
38000E00
70000700
70000700
60000300
E0000380
E0000380
E0000380
E0000380
E0000380
E0000380
E0000380
60000300
70000700
38000E00
3C001E00
1E003C00
0F80F800
03FFF000
01FFC000
00080000
ENDCHAR
STARTCHAR 00D7
ENCODING 215
SWIDTH 480 0
DWIDTH 16 0
BBX 13 13 2 4
BITMAP
4010
E038
7070
38E0
1DC0
0F80
0700
0F80
1DC0
38E0
7070
E038
C018
ENDCHAR
STARTCHAR 00D8
ENCODING 216
SWIDTH 780 0
DWIDTH 26 0
BBX 25 25 1 -1
BITMAP
007E0600
03FFCE00
07F7FC00
1F007800
3C007C00
38007E00
7000CE00
60018700
E0038700
E0070300
C00E0380
C01C0380
C0180380
C0300380
C0600300
E0E00300
E1C00700
73800600
77000E00
3E001C00
1C003C00
1F00F800
37FFE000
71FF8000
20000000
ENDCHAR
STARTCHAR 00D9
ENCODING 217
SWIDTH 480 0
DWIDTH 16 0
BBX 14 31 1 -1
BITMAP
0C00
0600
0600
0300
0180
0000
0000
E00C
E00C
E00C
E00C
E00C
E00C
E00C
E00C
E00C
E00C
E00C
E00C
E00C
E00C
E00C
E00C
E00C
601C
601C
7018
3838
3FF0
0FE0
0100
ENDCHAR
STARTCHAR 00DA
ENCODING 218
SWIDTH 480 0
DWIDTH 16 0
BBX 14 31 1 -1
BITMAP
00E0
00C0
0180
0300
0300
0000
0000
E00C
E00C
E00C
E00C
E00C
E00C
E00C
E00C
E00C
E00C
E00C
E00C
E00C
E00C
E00C
E00C
E00C
601C
601C
7018
3838
3FF0
0FE0
0100
ENDCHAR
STARTCHAR 00DB
ENCODING 219
SWIDTH 480 0
DWIDTH 16 0
BBX 14 31 1 -1
BITMAP
0380
07C0
0CC0
1C60
1830
0000
0000
E00C
E00C
E00C
E00C
E00C
E00C
E00C
E00C
E00C
E00C
E00C
E00C
E00C
E00C
E00C
E00C
E00C
601C
601C
7018
3838
3FF0
0FE0
0100
ENDCHAR
STARTCHAR 00DC
ENCODING 220
SWIDTH 480 0
DWIDTH 16 0
BBX 14 30 1 0
BITMAP
3C78
3C78
3C78
3830
0000
0000
E00C
E00C
E00C
E00C
E00C
E00C
E00C
E00C
E00C
E00C
E00C
E00C
E00C
E00C
E00C
E00C
E00C
601C
601C
7018
3838
3FF0
0FE0
0100
ENDCHAR
STARTCHAR 00DD
ENCODING 221
SWIDTH 480 0
DWIDTH 16 0
BBX 14 30 1 0
BITMAP
00C0
01C0
0180
0300
0200
0000
0000
E01C
E01C
E01C
E01C
E01C
E01C
E01C
E01C
E01C
E01C
E01C
E01C
601C
7038
7878
3FF0
0FE0
0300
0300
0300
0300
0300
0300
ENDCHAR
STARTCHAR 00E0
ENCODING 224
SWIDTH 540 0
DWIDTH 18 0
BBX 16 30 2 0
BITMAP
1800
0C00
0600
0600
0300
0000
0780
3FE0
7DF0
7070
E038
E018
C018
C018
C018
C018
C018
C018
C018
C018
C018
C018
C018
C018
C018
C018
C018
C018
FFFF
FFFF
ENDCHAR
STARTCHAR 00E1
ENCODING 225
SWIDTH 540 0
DWIDTH 18 0
BBX 16 30 2 0
BITMAP
00C0
0180
0300
0300
0600
0000
0780
3FE0
7DF0
7070
E038
E018
C018
C018
C018
C018
C018
C018
C018
C018
C018
C018
C018
C018
C018
C018
C018
C018
FFFF
FFFF
ENDCHAR
STARTCHAR 00E2
ENCODING 226
SWIDTH 540 0
DWIDTH 18 0
BBX 16 30 2 0
BITMAP
0700
0F80
1DC0
18C0
3060
0000
0780
3FE0
7DF0
7070
E038
E018
C018
C018
C018
C018
C018
C018
C018
C018
C018
C018
C018
C018
C018
C018
C018
C018
FFFF
FFFF
ENDCHAR
STARTCHAR 00E3
ENCODING 227
SWIDTH 540 0
DWIDTH 18 0
BBX 16 29 2 0
BITMAP
3FC0
37C0
0000
0000
0000
0780
3FE0
7DF0
7070
E038
E018
C018
C018
C018
C018
C018
C018
C018
C018
C018
C018
C018
C018
C018
C018
C018
C018
FFFF
FFFF
ENDCHAR
STARTCHAR 00E4
ENCODING 228
SWIDTH 540 0
DWIDTH 18 0
BBX 16 29 2 1
BITMAP
78F0
78F8
78F0
3870
0000
0780
3FE0
7DF0
7070
E038
E018
C018
C018
C018
C018
C018
C018
C018
C018
C018
C018
C018
C018
C018
C018
C018
C018
FFFF
FFFF
ENDCHAR
STARTCHAR 00E5
ENCODING 229
SWIDTH 540 0
DWIDTH 18 0
BBX 16 32 2 0
BITMAP
0700
0F80
18C0
18C0
18C0
0F80
0200
0000
0780
3FE0
7DF0
7070
E038
E018
C018
C018
C018
C018
C018
C018
C018
C018
C018
C018
C018
C018
C018
C018
C018
C018
FFFF
FFFF
ENDCHAR
STARTCHAR 00E7
ENCODING 231
SWIDTH 660 0
DWIDTH 22 0
BBX 21 31 1 -7
BITMAP
007E00
01FFC0
07F7E0
0F00F8
1C0038
380010
700000
700000
600000
E00000
E00000
E00000
E00000
E00000
E00000
E00000
600000
700000
380000
3C0018
1E0038
0F80F0
07FFE0
01FF80
001800
003800
000C00
000400
008400
00EC00
007800
ENDCHAR
STARTCHAR 00E8
ENCODING 232
SWIDTH 480 0
DWIDTH 16 0
BBX 15 30 1 0
BITMAP
1C00
0C00
0600
0300
0300
0000
0000
3FE0
3FE0
3800
3800
3800
3800
3800
3800
3800
3800
FFF8
FFF8
3800
3800
3800
3800
3800
3800
3800
3800
3800
3FFE
3FFE
ENDCHAR
STARTCHAR 00E9
ENCODING 233
SWIDTH 480 0
DWIDTH 16 0
BBX 15 30 1 0
BITMAP
00C0
0180
0380
0300
0600
0000
0000
3FE0
3FE0
3800
3800
3800
3800
3800
3800
3800
3800
FFF8
FFF8
3800
3800
3800
3800
3800
3800
3800
3800
3800
3FFE
3FFE
ENDCHAR
STARTCHAR 00EA
ENCODING 234
SWIDTH 480 0
DWIDTH 16 0
BBX 15 30 1 0
BITMAP
0700
0F80
0CC0
18E0
3060
0000
0000
3FE0
3FE0
3800
3800
3800
3800
3800
3800
3800
3800
FFF8
FFF8
3800
3800
3800
3800
3800
3800
3800
3800
3800
3FFE
3FFE
ENDCHAR
STARTCHAR 00EB
ENCODING 235
SWIDTH 480 0
DWIDTH 16 0
BBX 15 29 1 1
BITMAP
78F0
7CF8
7CF8
3870
0000
0000
3FE0
3FE0
3800
3800
3800
3800
3800
3800
3800
3800
FFF8
FFF8
3800
3800
3800
3800
3800
3800
3800
3800
3800
3FFE
3FFE
ENDCHAR
STARTCHAR 00EC
ENCODING 236
SWIDTH 150 0
DWIDTH 5 0
BBX 4 21 0 0
BITMAP
C0
E0
60
30
10
00
00
30
30
30
30
30
30
30
30
30
30
30
30
30
30
ENDCHAR
STARTCHAR 00ED
ENCODING 237
SWIDTH 150 0
DWIDTH 5 0
BBX 5 21 1 0
BITMAP
18
38
30
60
C0
00
00
60
60
60
60
60
60
60
60
60
60
60
60
60
60
ENDCHAR
STARTCHAR 00EE
ENCODING 238
SWIDTH 150 0
DWIDTH 5 0
BBX 10 21 -2 0
BITMAP
1E00
1E00
3300
6180
C0C0
0000
0000
0C00
0C00
0C00
0C00
0C00
0C00
0C00
0C00
0C00
0C00
0C00
0C00
0C00
0C00
ENDCHAR
STARTCHAR 00EF
ENCODING 239
SWIDTH 150 0
DWIDTH 5 0
BBX 12 21 -3 0
BITMAP
2000
78F0
F9F0
F9F0
70E0
0000
0000
0600
0600
0600
0600
0600
0600
0600
0600
0600
0600
0600
0600
0600
0600
ENDCHAR
STARTCHAR 00F1
ENCODING 241
SWIDTH 480 0
DWIDTH 16 0
BBX 14 29 1 0
BITMAP
1FE0
1FE0
0000
0000
0000
C000
E00C
F00C
780C
7E0C
6F0C
678C
61CC
60FC
607C
603C
600C
600C
600C
600C
600C
600C
600C
600C
600C
600C
600C
600C
600C
ENDCHAR
STARTCHAR 00F2
ENCODING 242
SWIDTH 810 0
DWIDTH 27 0
BBX 25 31 1 -1
BITMAP
00600000
00300000
00180000
00180000
000C0000
00000000
003E0000
01FFC000
07F7F000
0F007800
1C001C00
38000E00
70000700
70000700
60000300
E0000380
E0000380
E0000380
E0000380
E0000380
E0000380
E0000380
60000300
70000700
38000E00
3C001E00
1E003C00
0F80F800
03FFF000
01FFC000
00080000
ENDCHAR
STARTCHAR 00F3
ENCODING 243
SWIDTH 810 0
DWIDTH 27 0
BBX 25 31 1 -1
BITMAP
00030000
00060000
000C0000
000C0000
00180000
00000000
003E0000
01FFC000
07F7F000
0F007800
1C001C00
38000E00
70000700
70000700
60000300
E0000380
E0000380
E0000380
E0000380
E0000380
E0000380
E0000380
60000300
70000700
38000E00
3C001E00
1E003C00
0F80F800
03FFF000
01FFC000
00080000
ENDCHAR
STARTCHAR 00F4
ENCODING 244
SWIDTH 810 0
DWIDTH 27 0
BBX 25 31 1 -1
BITMAP
001C0000
003E0000
00770000
00630000
00C18000
00000000
003E0000
01FFC000
07F7F000
0F007800
1C001C00
38000E00
70000700
70000700
60000300
E0000380
E0000380
E0000380
E0000380
E0000380
E0000380
E0000380
60000300
70000700
38000E00
3C001E00
1E003C00
0F80F800
03FFF000
01FFC000
00080000
ENDCHAR
STARTCHAR 00F5
ENCODING 245
SWIDTH 810 0
DWIDTH 27 0
BBX 25 30 1 -1
BITMAP
00FF0000
00DF0000
00000000
00000000
00000000
003E0000
01FFC000
07F7F000
0F007800
1C001C00
38000E00
70000700
70000700
60000300
E0000380
E0000380
E0000380
E0000380
E0000380
E0000380
E0000380
60000300
70000700
38000E00
3C001E00
1E003C00
0F80F800
03FFF000
01FFC000
00080000
ENDCHAR
STARTCHAR 00F6
ENCODING 246
SWIDTH 810 0
DWIDTH 27 0
BBX 25 30 1 0
BITMAP
01E3C000
01E3E000
01E3C000
00E1C000
00000000
003E0000
01FFC000
07F7F000
0F007800
1C001C00
38000E00
70000700
70000700
60000300
E0000380
E0000380
E0000380
E0000380
E0000380
E0000380
E0000380
60000300
70000700
38000E00
3C001E00
1E003C00
0F80F800
03FFF000
01FFC000
00080000
ENDCHAR
STARTCHAR 00F7
ENCODING 247
SWIDTH 540 0
DWIDTH 18 0
BBX 15 14 2 4
BITMAP
0300
0780
0780
0380
0000
0000
FFFE
FFFE
0000
0000
0300
0780
0780
0380
ENDCHAR
STARTCHAR 00F8
ENCODING 248
SWIDTH 780 0
DWIDTH 26 0
BBX 25 25 1 -1
BITMAP
007E0600
03FFCE00
07F7FC00
1F007800
3C007C00
38007E00
7000CE00
60018700
E0038700
E0070300
C00E0380
C01C0380
C0180380
C0300380
C0600300
E0E00300
E1C00700
73800600
77000E00
3E001C00
1C003C00
1F00F800
37FFE000
71FF8000
20000000
ENDCHAR
STARTCHAR 00F9
ENCODING 249
SWIDTH 480 0
DWIDTH 16 0
BBX 14 31 1 -1
BITMAP
0C00
0600
0600
0300
0180
0000
0000
E00C
E00C
E00C
E00C
E00C
E00C
E00C
E00C
E00C
E00C
E00C
E00C
E00C
E00C
E00C
E00C
E00C
601C
601C
7018
3838
3FF0
0FE0
0100
ENDCHAR
STARTCHAR 00FA
ENCODING 250
SWIDTH 480 0
DWIDTH 16 0
BBX 14 31 1 -1
BITMAP
00E0
00C0
0180
0300
0300
0000
0000
E00C
E00C
E00C
E00C
E00C
E00C
E00C
E00C
E00C
E00C
E00C
E00C
E00C
E00C
E00C
E00C
E00C
601C
601C
7018
3838
3FF0
0FE0
0100
ENDCHAR
STARTCHAR 00FB
ENCODING 251
SWIDTH 480 0
DWIDTH 16 0
BBX 14 31 1 -1
BITMAP
0380
07C0
0CC0
1C60
1830
0000
0000
E00C
E00C
E00C
E00C
E00C
E00C
E00C
E00C
E00C
E00C
E00C
E00C
E00C
E00C
E00C
E00C
E00C
601C
601C
7018
3838
3FF0
0FE0
0100
ENDCHAR
STARTCHAR 00FC
ENCODING 252
SWIDTH 480 0
DWIDTH 16 0
BBX 14 30 1 0
BITMAP
3C78
3C78
3C78
3830
0000
0000
E00C
E00C
E00C
E00C
E00C
E00C
E00C
E00C
E00C
E00C
E00C
E00C
E00C
E00C
E00C
E00C
E00C
601C
601C
7018
3838
3FF0
0FE0
0100
ENDCHAR
STARTCHAR 00FD
ENCODING 253
SWIDTH 480 0
DWIDTH 16 0
BBX 14 30 1 0
BITMAP
00C0
01C0
0180
0300
0200
0000
0000
E01C
E01C
E01C
E01C
E01C
E01C
E01C
E01C
E01C
E01C
E01C
E01C
601C
7038
7878
3FF0
0FE0
0300
0300
0300
0300
0300
0300
ENDCHAR
STARTCHAR 00FF
ENCODING 255
SWIDTH 480 0
DWIDTH 16 0
BBX 14 29 1 1
BITMAP
3C78
7C78
3C78
3870
0000
0000
E01C
E01C
E01C
E01C
E01C
E01C
E01C
E01C
E01C
E01C
E01C
E01C
601C
7038
7878
3FF0
0FE0
0300
0300
0300
0300
0300
0300
ENDCHAR
STARTCHAR 0100
ENCODING 256
SWIDTH 540 0
DWIDTH 18 0
BBX 16 29 2 0
BITMAP
3FE0
3FE0
0000
0000
0000
0780
3FE0
7DF0
7070
E038
E018
C018
C018
C018
C018
C018
C018
C018
C018
C018
C018
C018
C018
C018
C018
C018
C018
FFFF
FFFF
ENDCHAR
STARTCHAR 0101
ENCODING 257
SWIDTH 540 0
DWIDTH 18 0
BBX 16 29 2 0
BITMAP
3FE0
3FE0
0000
0000
0000
0780
3FE0
7DF0
7070
E038
E018
C018
C018
C018
C018
C018
C018
C018
C018
C018
C018
C018
C018
C018
C018
C018
C018
FFFF
FFFF
ENDCHAR
STARTCHAR 0102
ENCODING 258
SWIDTH 540 0
DWIDTH 18 0
BBX 16 30 2 0
BITMAP
3060
3060
18C0
1FC0
0200
0000
0780
3FE0
7DF0
7070
E038
E018
C018
C018
C018
C018
C018
C018
C018
C018
C018
C018
C018
C018
C018
C018
C018
C018
FFFF
FFFF
ENDCHAR
STARTCHAR 0103
ENCODING 259
SWIDTH 540 0
DWIDTH 18 0
BBX 16 30 2 0
BITMAP
3060
3060
18C0
1FC0
0200
0000
0780
3FE0
7DF0
7070
E038
E018
C018
C018
C018
C018
C018
C018
C018
C018
C018
C018
C018
C018
C018
C018
C018
C018
FFFF
FFFF
ENDCHAR
STARTCHAR 0104
ENCODING 260
SWIDTH 540 0
DWIDTH 18 0
BBX 17 30 2 -6
BITMAP
078000
3FE000
7DF000
707000
E03800
E01800
C01800
C01800
C01800
C01800
C01800
C01800
C01800
C01800
C01800
C01800
C01800
C01800
C01800
C01800
C01800
C01800
FFFF00
FFFF00
000C00
001800
001800
001800
001F80
000F00
ENDCHAR
STARTCHAR 0105
ENCODING 261
SWIDTH 540 0
DWIDTH 18 0
BBX 17 30 2 -6
BITMAP
078000
3FE000
7DF000
707000
E03800
E01800
C01800
C01800
C01800
C01800
C01800
C01800
C01800
C01800
C01800
C01800
C01800
C01800
C01800
C01800
C01800
C01800
FFFF00
FFFF00
000C00
001800
001800
001800
001F80
000F00
ENDCHAR
STARTCHAR 0106
ENCODING 262
SWIDTH 660 0
DWIDTH 22 0
BBX 21 31 1 -1
BITMAP
000700
000600
000C00
001800
001800
000000
007E00
01FFC0
07F7E0
0F00F8
1C0038
380010
700000
700000
600000
E00000
E00000
E00000
E00000
E00000
E00000
E00000
600000
700000
380000
3C0018
1E0038
0F80F0
07FFE0
01FF80
000800
ENDCHAR
STARTCHAR 0107
ENCODING 263
SWIDTH 660 0
DWIDTH 22 0
BBX 21 31 1 -1
BITMAP
000700
000600
000C00
001800
001800
000000
007E00
01FFC0
07F7E0
0F00F8
1C0038
380010
700000
700000
600000
E00000
E00000
E00000
E00000
E00000
E00000
E00000
600000
700000
380000
3C0018
1E0038
0F80F0
07FFE0
01FF80
000800
ENDCHAR
STARTCHAR 010A
ENCODING 266
SWIDTH 660 0
DWIDTH 22 0
BBX 21 31 1 -1
BITMAP
001C00
003E00
003E00
001C00
000000
000000
007E00
01FFC0
07F7E0
0F00F8
1C0038
380010
700000
700000
600000
E00000
E00000
E00000
E00000
E00000
E00000
E00000
600000
700000
380000
3C0018
1E0038
0F80F0
07FFE0
01FF80
000800
ENDCHAR
STARTCHAR 010B
ENCODING 267
SWIDTH 660 0
DWIDTH 22 0
BBX 21 31 1 -1
BITMAP
001C00
003E00
003E00
001C00
000000
000000
007E00
01FFC0
07F7E0
0F00F8
1C0038
380010
700000
700000
600000
E00000
E00000
E00000
E00000
E00000
E00000
E00000
600000
700000
380000
3C0018
1E0038
0F80F0
07FFE0
01FF80
000800
ENDCHAR
STARTCHAR 010C
ENCODING 268
SWIDTH 660 0
DWIDTH 22 0
BBX 21 31 1 -1
BITMAP
00C180
006300
003600
003C00
000000
000000
007E00
01FFC0
07F7E0
0F00F8
1C0038
380010
700000
700000
600000
E00000
E00000
E00000
E00000
E00000
E00000
E00000
600000
700000
380000
3C0018
1E0038
0F80F0
07FFE0
01FF80
000800
ENDCHAR
STARTCHAR 010D
ENCODING 269
SWIDTH 660 0
DWIDTH 22 0
BBX 21 31 1 -1
BITMAP
00C180
006300
003600
003C00
000000
000000
007E00
01FFC0
07F7E0
0F00F8
1C0038
380010
700000
700000
600000
E00000
E00000
E00000
E00000
E00000
E00000
E00000
600000
700000
380000
3C0018
1E0038
0F80F0
07FFE0
01FF80
000800
ENDCHAR
STARTCHAR 010E
ENCODING 270
SWIDTH 630 0
DWIDTH 21 0
BBX 18 30 2 0
BITMAP
386000
1CC000
0DC000
078000
000000
000000
000000
FFE000
FFF800
C07C00
C00E00
C00700
C00380
C00380
C001C0
C001C0
C001C0
C000C0
C000C0
C000C0
C001C0
C001C0
C00180
C00380
C00380
C00700
C01E00
C1FC00
FFF000
FFC000
ENDCHAR
STARTCHAR 010F
ENCODING 271
SWIDTH 630 0
DWIDTH 21 0
BBX 18 30 2 0
BITMAP
386000
1CC000
0DC000
078000
000000
000000
000000
FFE000
FFF800
C07C00
C00E00
C00700
C00380
C00380
C001C0
C001C0
C001C0
C000C0
C000C0
C000C0
C001C0
C001C0
C00180
C00380
C00380
C00700
C01E00
C1FC00
FFF000
FFC000
ENDCHAR
STARTCHAR 0110
ENCODING 272
SWIDTH 660 0
DWIDTH 22 0
BBX 20 23 1 0
BITMAP
3FF800
3FFE00
381F80
3803C0
3801C0
3800E0
380070
380070
380030
380030
FFE030
FFE030
380030
380030
380070
380070
380060
3800E0
3801C0
380780
383F00
3FFE00
3FF000
ENDCHAR
STARTCHAR 0111
ENCODING 273
SWIDTH 660 0
DWIDTH 22 0
BBX 20 23 1 0
BITMAP
3FF800
3FFE00
381F80
3803C0
3801C0
3800E0
380070
380070
380030
380030
FFE030
FFE030
380030
380030
380070
380070
380060
3800E0
3801C0
380780
383F00
3FFE00
3FF000
ENDCHAR
STARTCHAR 0112
ENCODING 274
SWIDTH 480 0
DWIDTH 16 0
BBX 15 29 1 0
BITMAP
3FE0
3FE0
0000
0000
0000
0000
3FE0
3FE0
3800
3800
3800
3800
3800
3800
3800
3800
FFF8
FFF8
3800
3800
3800
3800
3800
3800
3800
3800
3800
3FFE
3FFE
ENDCHAR
STARTCHAR 0113
ENCODING 275
SWIDTH 480 0
DWIDTH 16 0
BBX 15 29 1 0
BITMAP
3FE0
3FE0
0000
0000
0000
0000
3FE0
3FE0
3800
3800
3800
3800
3800
3800
3800
3800
FFF8
FFF8
3800
3800
3800
3800
3800
3800
3800
3800
3800
3FFE
3FFE
ENDCHAR
STARTCHAR 0116
ENCODING 278
SWIDTH 480 0
DWIDTH 16 0
BBX 15 30 1 0
BITMAP
0780
0780
0780
0780
0000
0000
0000
3FE0
3FE0
3800
3800
3800
3800
3800
3800
3800
3800
FFF8
FFF8
3800
3800
3800
3800
3800
3800
3800
3800
3800
3FFE
3FFE
ENDCHAR
STARTCHAR 0117
ENCODING 279
SWIDTH 480 0
DWIDTH 16 0
BBX 15 30 1 0
BITMAP
0780
0780
0780
0780
0000
0000
0000
3FE0
3FE0
3800
3800
3800
3800
3800
3800
3800
3800
FFF8
FFF8
3800
3800
3800
3800
3800
3800
3800
3800
3800
3FFE
3FFE
ENDCHAR
STARTCHAR 0118
ENCODING 280
SWIDTH 480 0
DWIDTH 16 0
BBX 16 29 1 -6
BITMAP
3FE0
3FE0
3800
3800
3800
3800
3800
3800
3800
3800
FFF8
FFF8
3800
3800
3800
3800
3800
3800
3800
3800
3800
3FFE
3FFE
000C
0010
0030
0030
001B
000E
ENDCHAR
STARTCHAR 0119
ENCODING 281
SWIDTH 480 0
DWIDTH 16 0
BBX 16 29 1 -6
BITMAP
3FE0
3FE0
3800
3800
3800
3800
3800
3800
3800
3800
FFF8
FFF8
3800
3800
3800
3800
3800
3800
3800
3800
3800
3FFE
3FFE
000C
0010
0030
0030
001B
000E
ENDCHAR
STARTCHAR 011A
ENCODING 282
SWIDTH 480 0
DWIDTH 16 0
BBX 15 30 1 0
BITMAP
3860
18C0
0DC0
0780
0000
0000
0000
3FE0
3FE0
3800
3800
3800
3800
3800
3800
3800
3800
FFF8
FFF8
3800
3800
3800
3800
3800
3800
3800
3800
3800
3FFE
3FFE
ENDCHAR
STARTCHAR 011B
ENCODING 283
SWIDTH 480 0
DWIDTH 16 0
BBX 15 30 1 0
BITMAP
3860
18C0
0DC0
0780
0000
0000
0000
3FE0
3FE0
3800
3800
3800
3800
3800
3800
3800
3800
FFF8
FFF8
3800
3800
3800
3800
3800
3800
3800
3800
3800
3FFE
3FFE
ENDCHAR
STARTCHAR 011E
ENCODING 286
SWIDTH 810 0
DWIDTH 27 0
BBX 27 31 1 -1
BITMAP
00C18000
00C18000
00E30000
007E0000
00080000
00000000
003E0000
01FFC000
07F7F000
0F007800
1C003C00
38001000
70000000
70000000
60000000
E0000000
E0000000
E00FFFE0
E00FFFE0
E0000300
E0000300
E0000700
60000700
70000600
38000E00
3C001C00
1E003C00
0F80F800
03FFE000
01FF8000
00080000
ENDCHAR
STARTCHAR 011F
ENCODING 287
SWIDTH 810 0
DWIDTH 27 0
BBX 27 31 1 -1
BITMAP
00C18000
00C18000
00E30000
007E0000
00080000
00000000
003E0000
01FFC000
07F7F000
0F007800
1C003C00
38001000
70000000
70000000
60000000
E0000000
E0000000
E00FFFE0
E00FFFE0
E0000300
E0000300
E0000700
60000700
70000600
38000E00
3C001C00
1E003C00
0F80F800
03FFE000
01FF8000
00080000
ENDCHAR
STARTCHAR 0120
ENCODING 288
SWIDTH 810 0
DWIDTH 27 0
BBX 27 31 1 -1
BITMAP
001C0000
003E0000
003E0000
001C0000
00000000
00000000
003E0000
01FFC000
07F7F000
0F007800
1C003C00
38001000
70000000
70000000
60000000
E0000000
E0000000
E00FFFE0
E00FFFE0
E0000300
E0000300
E0000700
60000700
70000600
38000E00
3C001C00
1E003C00
0F80F800
03FFE000
01FF8000
00080000
ENDCHAR
STARTCHAR 0121
ENCODING 289
SWIDTH 810 0
DWIDTH 27 0
BBX 27 31 1 -1
BITMAP
001C0000
003E0000
003E0000
001C0000
00000000
00000000
003E0000
01FFC000
07F7F000
0F007800
1C003C00
38001000
70000000
70000000
60000000
E0000000
E0000000
E00FFFE0
E00FFFE0
E0000300
E0000300
E0000700
60000700
70000600
38000E00
3C001C00
1E003C00
0F80F800
03FFE000
01FF8000
00080000
ENDCHAR
STARTCHAR 0124
ENCODING 292
SWIDTH 540 0
DWIDTH 18 0
BBX 16 30 1 0
BITMAP
01C0
03E0
0330
0638
0C1C
0000
0000
3807
3807
3807
3807
3807
3807
3807
3807
3807
FFFF
FFFF
3807
3807
3807
3807
3807
3807
3807
3807
3807
3807
3807
3807
ENDCHAR
STARTCHAR 0125
ENCODING 293
SWIDTH 540 0
DWIDTH 18 0
BBX 16 30 1 0
BITMAP
01C0
03E0
0330
0638
0C1C
0000
0000
3807
3807
3807
3807
3807
3807
3807
3807
3807
FFFF
FFFF
3807
3807
3807
3807
3807
3807
3807
3807
3807
3807
3807
3807
ENDCHAR
STARTCHAR 0128
ENCODING 296
SWIDTH 150 0
DWIDTH 5 0
BBX 8 20 -2 0
BITMAP
FF
DF
00
00
00
00
0C
0C
0C
0C
0C
0C
0C
0C
0C
0C
0C
0C
0C
0C
ENDCHAR
STARTCHAR 0129
ENCODING 297
SWIDTH 150 0
DWIDTH 5 0
BBX 8 20 -2 0
BITMAP
FF
DF
00
00
00
00
0C
0C
0C
0C
0C
0C
0C
0C
0C
0C
0C
0C
0C
0C
ENDCHAR
STARTCHAR 012A
ENCODING 298
SWIDTH 150 0
DWIDTH 5 0
BBX 10 20 -2 0
BITMAP
FFC0
FFC0
0000
0000
0000
0000
0C00
0C00
0C00
0C00
0C00
0C00
0C00
0C00
0C00
0C00
0C00
0C00
0C00
0C00
ENDCHAR
STARTCHAR 012B
ENCODING 299
SWIDTH 150 0
DWIDTH 5 0
BBX 10 20 -2 0
BITMAP
FFC0
FFC0
0000
0000
0000
0000
0C00
0C00
0C00
0C00
0C00
0C00
0C00
0C00
0C00
0C00
0C00
0C00
0C00
0C00
ENDCHAR
STARTCHAR 012E
ENCODING 302
SWIDTH 150 0
DWIDTH 5 0
BBX 7 32 -1 -6
BITMAP
10
10
18
FE
38
3C
24
00
00
00
00
00
18
18
18
18
18
18
18
18
18
18
18
18
18
18
20
40
C0
C0
6C
38
ENDCHAR
STARTCHAR 012F
ENCODING 303
SWIDTH 150 0
DWIDTH 5 0
BBX 7 32 -1 -6
BITMAP
10
10
18
FE
38
3C
24
00
00
00
00
00
18
18
18
18
18
18
18
18
18
18
18
18
18
18
20
40
C0
C0
6C
38
ENDCHAR
STARTCHAR 0130
ENCODING 304
SWIDTH 150 0
DWIDTH 5 0
BBX 4 21 1 0
BITMAP
F0
F0
F0
70
00
00
00
60
60
60
60
60
60
60
60
60
60
60
60
60
60
ENDCHAR
STARTCHAR 0139
ENCODING 313
SWIDTH 420 0
DWIDTH 14 0
BBX 12 30 1 0
BITMAP
1800
3800
3000
6000
C000
0000
0000
6000
6000
6000
6000
6000
6000
6000
6000
6000
6000
6000
6000
6000
6000
6000
6000
6000
6000
6000
6000
6000
7FF0
7FF0
ENDCHAR
STARTCHAR 013A
ENCODING 314
SWIDTH 420 0
DWIDTH 14 0
BBX 12 30 1 0
BITMAP
1800
3800
3000
6000
C000
0000
0000
6000
6000
6000
6000
6000
6000
6000
6000
6000
6000
6000
6000
6000
6000
6000
6000
6000
6000
6000
6000
6000
7FF0
7FF0
ENDCHAR
STARTCHAR 013D
ENCODING 317
SWIDTH 420 0
DWIDTH 14 0
BBX 14 30 -1 0
BITMAP
C300
E700
7E00
3C00
0000
0000
0000
1800
1800
1800
1800
1800
1800
1800
1800
1800
1800
1800
1800
1800
1800
1800
1800
1800
1800
1800
1800
1800
1FFC
1FFC
ENDCHAR
STARTCHAR 013E
ENCODING 318
SWIDTH 420 0
DWIDTH 14 0
BBX 14 30 -1 0
BITMAP
C300
E700
7E00
3C00
0000
0000
0000
1800
1800
1800
1800
1800
1800
1800
1800
1800
1800
1800
1800
1800
1800
1800
1800
1800
1800
1800
1800
1800
1FFC
1FFC
ENDCHAR
STARTCHAR 0141
ENCODING 321
SWIDTH 450 0
DWIDTH 15 0
BBX 14 23 1 0
BITMAP
3800
3800
3800
3800
3800
3800
3800
3800
3980
3F80
3E00
3800
F800
F800
3800
3800
3800
3800
3800
3800
3800
3FFC
3FFC
ENDCHAR
STARTCHAR 0142
ENCODING 322
SWIDTH 450 0
DWIDTH 15 0
BBX 14 23 1 0
BITMAP
3800
3800
3800
3800
3800
3800
3800
3800
3980
3F80
3E00
3800
F800
F800
3800
3800
3800
3800
3800
3800
3800
3FFC
3FFC
ENDCHAR
STARTCHAR 0143
ENCODING 323
SWIDTH 480 0
DWIDTH 16 0
BBX 14 30 1 0
BITMAP
00E0
00C0
0180
0300
0300
0000
C000
E00C
F00C
780C
7E0C
6F0C
678C
61CC
60FC
607C
603C
600C
600C
600C
600C
600C
600C
600C
600C
600C
600C
600C
600C
600C
ENDCHAR
STARTCHAR 0144
ENCODING 324
SWIDTH 480 0
DWIDTH 16 0
BBX 14 30 1 0
BITMAP
00E0
00C0
0180
0300
0300
0000
C000
E00C
F00C
780C
7E0C
6F0C
678C
61CC
60FC
607C
603C
600C
600C
600C
600C
600C
600C
600C
600C
600C
600C
600C
600C
600C
ENDCHAR
STARTCHAR 0147
ENCODING 327
SWIDTH 480 0
DWIDTH 16 0
BBX 14 30 1 0
BITMAP
1830
0C60
06C0
0780
0000
0000
C000
E00C
F00C
780C
7E0C
6F0C
678C
61CC
60FC
607C
603C
600C
600C
600C
600C
600C
600C
600C
600C
600C
600C
600C
600C
600C
ENDCHAR
STARTCHAR 0148
ENCODING 328
SWIDTH 480 0
DWIDTH 16 0
BBX 14 30 1 0
BITMAP
1830
0C60
06C0
0780
0000
0000
C000
E00C
F00C
780C
7E0C
6F0C
678C
61CC
60FC
607C
603C
600C
600C
600C
600C
600C
600C
600C
600C
600C
600C
600C
600C
600C
ENDCHAR
STARTCHAR 014C
ENCODING 332
SWIDTH 810 0
DWIDTH 27 0
BBX 25 30 1 -1
BITMAP
00FF8000
00FF8000
00000000
00000000
00000000
003E0000
01FFC000
07F7F000
0F007800
1C001C00
38000E00
70000700
70000700
60000300
E0000380
E0000380
E0000380
E0000380
E0000380
E0000380
E0000380
60000300
70000700
38000E00
3C001E00
1E003C00
0F80F800
03FFF000
01FFC000
00080000
ENDCHAR
STARTCHAR 014D
ENCODING 333
SWIDTH 810 0
DWIDTH 27 0
BBX 25 30 1 -1
BITMAP
00FF8000
00FF8000
00000000
00000000
00000000
003E0000
01FFC000
07F7F000
0F007800
1C001C00
38000E00
70000700
70000700
60000300
E0000380
E0000380
E0000380
E0000380
E0000380
E0000380
E0000380
60000300
70000700
38000E00
3C001E00
1E003C00
0F80F800
03FFF000
01FFC000
00080000
ENDCHAR
STARTCHAR 0150
ENCODING 336
SWIDTH 810 0
DWIDTH 27 0
BBX 25 31 1 -1
BITMAP
00186000
0038C000
00318000
00618000
00C30000
00000000
003E0000
01FFC000
07F7F000
0F007800
1C001C00
38000E00
70000700
70000700
60000300
E0000380
E0000380
E0000380
E0000380
E0000380
E0000380
E0000380
60000300
70000700
38000E00
3C001E00
1E003C00
0F80F800
03FFF000
01FFC000
00080000
ENDCHAR
STARTCHAR 0151
ENCODING 337
SWIDTH 810 0
DWIDTH 27 0
BBX 25 31 1 -1
BITMAP
00186000
0038C000
00318000
00618000
00C30000
00000000
003E0000
01FFC000
07F7F000
0F007800
1C001C00
38000E00
70000700
70000700
60000300
E0000380
E0000380
E0000380
E0000380
E0000380
E0000380
E0000380
60000300
70000700
38000E00
3C001E00
1E003C00
0F80F800
03FFF000
01FFC000
00080000
ENDCHAR
STARTCHAR 0154
ENCODING 340
SWIDTH 570 0
DWIDTH 19 0
BBX 17 30 1 0
BITMAP
007000
006000
00C000
018000
018000
000000
000000
3FF800
3FFE00
380F00
380700
380380
380380
380380
380380
380380
380700
380F00
FFFE00
FFF800
FFFC00
381C00
380E00
380600
380700
380700
380700
380700
380700
380700
ENDCHAR
STARTCHAR 0155
ENCODING 341
SWIDTH 570 0
DWIDTH 19 0
BBX 17 30 1 0
BITMAP
007000
006000
00C000
018000
018000
000000
000000
3FF800
3FFE00
380F00
380700
380380
380380
380380
380380
380380
380700
380F00
FFFE00
FFF800
FFFC00
381C00
380E00
380600
380700
380700
380700
380700
380700
380700
ENDCHAR
STARTCHAR 0158
ENCODING 344
SWIDTH 570 0
DWIDTH 19 0
BBX 17 30 1 0
BITMAP
0C3800
063000
076000
03C000
000000
000000
000000
3FF800
3FFE00
380F00
380700
380380
380380
380380
380380
380380
380700
380F00
FFFE00
FFF800
FFFC00
381C00
380E00
380600
380700
380700
380700
380700
380700
380700
ENDCHAR
STARTCHAR 0159
ENCODING 345
SWIDTH 570 0
DWIDTH 19 0
BBX 17 30 1 0
BITMAP
0C3800
063000
076000
03C000
000000
000000
000000
3FF800
3FFE00
380F00
380700
380380
380380
380380
380380
380380
380700
380F00
FFFE00
FFF800
FFFC00
381C00
380E00
380600
380700
380700
380700
380700
380700
380700
ENDCHAR
STARTCHAR 015A
ENCODING 346
SWIDTH 480 0
DWIDTH 16 0
BBX 14 31 1 -1
BITMAP
00C0
01C0
0180
0300
0600
0000
0780
1FE0
3FF0
7038
7018
701C
7010
7000
3800
1C00
0F00
07C0
01E0
00F0
0038
001C
001C
000C
E00C
E01C
701C
7838
3FF8
1FE0
0100
ENDCHAR
STARTCHAR 015B
ENCODING 347
SWIDTH 480 0
DWIDTH 16 0
BBX 14 31 1 -1
BITMAP
00C0
01C0
0180
0300
0600
0000
0780
1FE0
3FF0
7038
7018
701C
7010
7000
3800
1C00
0F00
07C0
01E0
00F0
0038
001C
001C
000C
E00C
E01C
701C
7838
3FF8
1FE0
0100
ENDCHAR
STARTCHAR 015E
ENCODING 350
SWIDTH 480 0
DWIDTH 16 0
BBX 14 31 1 -7
BITMAP
0780
1FE0
3FF0
7038
7018
701C
7010
7000
3800
1C00
0F00
07C0
01E0
00F0
0038
001C
001C
000C
E00C
E01C
701C
7838
3FF8
1FE0
0300
0380
00C0
0040
0840
0DC0
0780
ENDCHAR
STARTCHAR 015F
ENCODING 351
SWIDTH 480 0
DWIDTH 16 0
BBX 14 31 1 -7
BITMAP
0780
1FE0
3FF0
7038
7018
701C
7010
7000
3800
1C00
0F00
07C0
01E0
00F0
0038
001C
001C
000C
E00C
E01C
701C
7838
3FF8
1FE0
0300
0380
00C0
0040
0840
0DC0
0780
ENDCHAR
STARTCHAR 0160
ENCODING 352
SWIDTH 480 0
DWIDTH 16 0
BBX 14 31 1 -1
BITMAP
1860
1CE0
0FC0
0780
0000
0000
0780
1FE0
3FF0
7038
7018
701C
7010
7000
3800
1C00
0F00
07C0
01E0
00F0
0038
001C
001C
000C
E00C
E01C
701C
7838
3FF8
1FE0
0100
ENDCHAR
STARTCHAR 0161
ENCODING 353
SWIDTH 480 0
DWIDTH 16 0
BBX 14 31 1 -1
BITMAP
1860
1CE0
0FC0
0780
0000
0000
0780
1FE0
3FF0
7038
7018
701C
7010
7000
3800
1C00
0F00
07C0
01E0
00F0
0038
001C
001C
000C
E00C
E01C
701C
7838
3FF8
1FE0
0100
ENDCHAR
STARTCHAR 0162
ENCODING 354
SWIDTH 480 0
DWIDTH 16 0
BBX 15 30 1 -7
BITMAP
FFFE
FFFE
0300
0300
0300
0300
0300
0300
0300
0300
0300
0300
0300
0300
0300
0300
0300
0300
0300
0300
0300
0300
0300
0300
0300
00C0
00C0
18C0
1DC0
0780
ENDCHAR
STARTCHAR 0163
ENCODING 355
SWIDTH 480 0
DWIDTH 16 0
BBX 15 30 1 -7
BITMAP
FFFE
FFFE
0300
0300
0300
0300
0300
0300
0300
0300
0300
0300
0300
0300
0300
0300
0300
0300
0300
0300
0300
0300
0300
0300
0300
00C0
00C0
18C0
1DC0
0780
ENDCHAR
STARTCHAR 0164
ENCODING 356
SWIDTH 480 0
DWIDTH 16 0
BBX 15 30 1 0
BITMAP
1870
0C60
0EC0
0780
0000
0000
0000
FFFE
FFFE
0300
0300
0300
0300
0300
0300
0300
0300
0300
0300
0300
0300
0300
0300
0300
0300
0300
0300
0300
0300
0300
ENDCHAR
STARTCHAR 0165
ENCODING 357
SWIDTH 480 0
DWIDTH 16 0
BBX 15 30 1 0
BITMAP
1870
0C60
0EC0
0780
0000
0000
0000
FFFE
FFFE
0300
0300
0300
0300
0300
0300
0300
0300
0300
0300
0300
0300
0300
0300
0300
0300
0300
0300
0300
0300
0300
ENDCHAR
STARTCHAR 0168
ENCODING 360
SWIDTH 480 0
DWIDTH 16 0
BBX 14 30 1 -1
BITMAP
1FE0
17E0
0000
0000
0000
0000
E00C
E00C
E00C
E00C
E00C
E00C
E00C
E00C
E00C
E00C
E00C
E00C
E00C
E00C
E00C
E00C
E00C
601C
601C
7018
3838
3FF0
0FE0
0100
ENDCHAR
STARTCHAR 0169
ENCODING 361
SWIDTH 480 0
DWIDTH 16 0
BBX 14 30 1 -1
BITMAP
1FE0
17E0
0000
0000
0000
0000
E00C
E00C
E00C
E00C
E00C
E00C
E00C
E00C
E00C
E00C
E00C
E00C
E00C
E00C
E00C
E00C
E00C
601C
601C
7018
3838
3FF0
0FE0
0100
ENDCHAR
STARTCHAR 016A
ENCODING 362
SWIDTH 480 0
DWIDTH 16 0
BBX 14 30 1 -1
BITMAP
1FF0
1FF0
0000
0000
0000
0000
E00C
E00C
E00C
E00C
E00C
E00C
E00C
E00C
E00C
E00C
E00C
E00C
E00C
E00C
E00C
E00C
E00C
601C
601C
7018
3838
3FF0
0FE0
0100
ENDCHAR
STARTCHAR 016B
ENCODING 363
SWIDTH 480 0
DWIDTH 16 0
BBX 14 30 1 -1
BITMAP
1FF0
1FF0
0000
0000
0000
0000
E00C
E00C
E00C
E00C
E00C
E00C
E00C
E00C
E00C
E00C
E00C
E00C
E00C
E00C
E00C
E00C
E00C
601C
601C
7018
3838
3FF0
0FE0
0100
ENDCHAR
STARTCHAR 016E
ENCODING 366
SWIDTH 480 0
DWIDTH 16 0
BBX 14 33 1 -1
BITMAP
0380
0FC0
0C40
0860
0C40
07C0
0300
0000
0000
E00C
E00C
E00C
E00C
E00C
E00C
E00C
E00C
E00C
E00C
E00C
E00C
E00C
E00C
E00C
E00C
E00C
601C
601C
7018
3838
3FF0
0FE0
0100
ENDCHAR
STARTCHAR 016F
ENCODING 367
SWIDTH 480 0
DWIDTH 16 0
BBX 14 33 1 -1
BITMAP
0380
0FC0
0C40
0860
0C40
07C0
0300
0000
0000
E00C
E00C
E00C
E00C
E00C
E00C
E00C
E00C
E00C
E00C
E00C
E00C
E00C
E00C
E00C
E00C
E00C
601C
601C
7018
3838
3FF0
0FE0
0100
ENDCHAR
STARTCHAR 0170
ENCODING 368
SWIDTH 480 0
DWIDTH 16 0
BBX 14 31 1 -1
BITMAP
031C
0618
0630
0C20
1860
0000
0000
E00C
E00C
E00C
E00C
E00C
E00C
E00C
E00C
E00C
E00C
E00C
E00C
E00C
E00C
E00C
E00C
E00C
601C
601C
7018
3838
3FF0
0FE0
0100
ENDCHAR
STARTCHAR 0171
ENCODING 369
SWIDTH 480 0
DWIDTH 16 0
BBX 14 31 1 -1
BITMAP
031C
0618
0630
0C20
1860
0000
0000
E00C
E00C
E00C
E00C
E00C
E00C
E00C
E00C
E00C
E00C
E00C
E00C
E00C
E00C
E00C
E00C
E00C
601C
601C
7018
3838
3FF0
0FE0
0100
ENDCHAR
STARTCHAR 0172
ENCODING 370
SWIDTH 480 0
DWIDTH 16 0
BBX 14 29 1 -6
BITMAP
E00C
E00C
E00C
E00C
E00C
E00C
E00C
E00C
E00C
E00C
E00C
E00C
E00C
E00C
E00C
E00C
E00C
601C
601C
7018
3838
3FF0
0FE0
0300
0600
0400
0C00
0640
03C0
ENDCHAR
STARTCHAR 0173
ENCODING 371
SWIDTH 480 0
DWIDTH 16 0
BBX 14 29 1 -6
BITMAP
E00C
E00C
E00C
E00C
E00C
E00C
E00C
E00C
E00C
E00C
E00C
E00C
E00C
E00C
E00C
E00C
E00C
601C
601C
7018
3838
3FF0
0FE0
0300
0600
0400
0C00
0640
03C0
ENDCHAR
STARTCHAR 0176
ENCODING 374
SWIDTH 480 0
DWIDTH 16 0
BBX 14 30 1 0
BITMAP
0380
0780
0CC0
1860
3830
0000
0000
E01C
E01C
E01C
E01C
E01C
E01C
E01C
E01C
E01C
E01C
E01C
E01C
601C
7038
7878
3FF0
0FE0
0300
0300
0300
0300
0300
0300
ENDCHAR
STARTCHAR 0177
ENCODING 375
SWIDTH 480 0
DWIDTH 16 0
BBX 14 30 1 0
BITMAP
0380
0780
0CC0
1860
3830
0000
0000
E01C
E01C
E01C
E01C
E01C
E01C
E01C
E01C
E01C
E01C
E01C
E01C
601C
7038
7878
3FF0
0FE0
0300
0300
0300
0300
0300
0300
ENDCHAR
STARTCHAR 0178
ENCODING 376
SWIDTH 480 0
DWIDTH 16 0
BBX 14 29 1 1
BITMAP
3C78
7C78
3C78
3870
0000
0000
E01C
E01C
E01C
E01C
E01C
E01C
E01C
E01C
E01C
E01C
E01C
E01C
601C
7038
7878
3FF0
0FE0
0300
0300
0300
0300
0300
0300
ENDCHAR
STARTCHAR 0179
ENCODING 377
SWIDTH 480 0
DWIDTH 16 0
BBX 15 30 1 0
BITMAP
00E0
00C0
0180
0300
0300
0000
0000
FFFE
FFFC
001C
0038
0038
0070
0060
00E0
01C0
01C0
0380
0300
0700
0E00
0E00
1C00
1800
3800
7000
7000
E000
FFFC
FFFC
ENDCHAR
STARTCHAR 017A
ENCODING 378
SWIDTH 480 0
DWIDTH 16 0
BBX 15 30 1 0
BITMAP
00E0
00C0
0180
0300
0300
0000
0000
FFFE
FFFC
001C
0038
0038
0070
0060
00E0
01C0
01C0
0380
0300
0700
0E00
0E00
1C00
1800
3800
7000
7000
E000
FFFC
FFFC
ENDCHAR
STARTCHAR 017B
ENCODING 379
SWIDTH 480 0
DWIDTH 16 0
BBX 15 30 1 0
BITMAP
0380
07C0
07C0
0380
0000
0000
0000
FFFE
FFFC
001C
0038
0038
0070
0060
00E0
01C0
01C0
0380
0300
0700
0E00
0E00
1C00
1800
3800
7000
7000
E000
FFFC
FFFC
ENDCHAR
STARTCHAR 017C
ENCODING 380
SWIDTH 480 0
DWIDTH 16 0
BBX 15 30 1 0
BITMAP
0380
07C0
07C0
0380
0000
0000
0000
FFFE
FFFC
001C
0038
0038
0070
0060
00E0
01C0
01C0
0380
0300
0700
0E00
0E00
1C00
1800
3800
7000
7000
E000
FFFC
FFFC
ENDCHAR
STARTCHAR 017D
ENCODING 381
SWIDTH 480 0
DWIDTH 16 0
BBX 15 30 1 0
BITMAP
1830
0C60
06C0
0780
0000
0000
0000
FFFE
FFFC
001C
0038
0038
0070
0060
00E0
01C0
01C0
0380
0300
0700
0E00
0E00
1C00
1800
3800
7000
7000
E000
FFFC
FFFC
ENDCHAR
STARTCHAR 017E
ENCODING 382
SWIDTH 480 0
DWIDTH 16 0
BBX 15 30 1 0
BITMAP
1830
0C60
06C0
0780
0000
0000
0000
FFFE
FFFC
001C
0038
0038
0070
0060
00E0
01C0
01C0
0380
0300
0700
0E00
0E00
1C00
1800
3800
7000
7000
E000
FFFC
FFFC
ENDCHAR
STARTCHAR 01A0
ENCODING 416
SWIDTH 810 0
DWIDTH 27 0
BBX 25 27 1 -1
BITMAP
00000C00
00001C00
003E1800
01FFF000
07F7F000
0F007800
1C001C00
38000E00
70000700
70000700
60000300
E0000380
E0000380
E0000380
E0000380
E0000380
E0000380
E0000380
60000300
70000700
38000E00
3C001E00
1E003C00
0F80F800
03FFF000
01FFC000
00080000
ENDCHAR
STARTCHAR 01A1
ENCODING 417
SWIDTH 810 0
DWIDTH 27 0
BBX 25 27 1 -1
BITMAP
00000C00
00001C00
003E1800
01FFF000
07F7F000
0F007800
1C001C00
38000E00
70000700
70000700
60000300
E0000380
E0000380
E0000380
E0000380
E0000380
E0000380
E0000380
60000300
70000700
38000E00
3C001E00
1E003C00
0F80F800
03FFF000
01FFC000
00080000
ENDCHAR
STARTCHAR 01AF
ENCODING 431
SWIDTH 480 0
DWIDTH 16 0
BBX 16 27 1 -1
BITMAP
0003
0003
0003
E00E
E00C
E00C
E00C
E00C
E00C
E00C
E00C
E00C
E00C
E00C
E00C
E00C
E00C
E00C
E00C
E00C
601C
601C
7018
3838
3FF0
0FE0
0100
ENDCHAR
STARTCHAR 01B0
ENCODING 432
SWIDTH 480 0
DWIDTH 16 0
BBX 16 27 1 -1
BITMAP
0003
0003
0003
E00E
E00C
E00C
E00C
E00C
E00C
E00C
E00C
E00C
E00C
E00C
E00C
E00C
E00C
E00C
E00C
E00C
601C
601C
7018
3838
3FF0
0FE0
0100
ENDCHAR
STARTCHAR 01CD
ENCODING 461
SWIDTH 540 0
DWIDTH 18 0
BBX 16 30 2 0
BITMAP
3060
18C0
0D80
0780
0000
0000
0780
3FE0
7DF0
7070
E038
E018
C018
C018
C018
C018
C018
C018
C018
C018
C018
C018
C018
C018
C018
C018
C018
C018
FFFF
FFFF
ENDCHAR
STARTCHAR 01CE
ENCODING 462
SWIDTH 540 0
DWIDTH 18 0
BBX 16 30 2 0
BITMAP
3060
18C0
0D80
0780
0000
0000
0780
3FE0
7DF0
7070
E038
E018
C018
C018
C018
C018
C018
C018
C018
C018
C018
C018
C018
C018
C018
C018
C018
C018
FFFF
FFFF
ENDCHAR
STARTCHAR 01CF
ENCODING 463
SWIDTH 150 0
DWIDTH 5 0
BBX 8 21 -1 0
BITMAP
C3
E7
7E
3C
00
00
00
18
18
18
18
18
18
18
18
18
18
18
18
18
18
ENDCHAR
STARTCHAR 01D0
ENCODING 464
SWIDTH 150 0
DWIDTH 5 0
BBX 8 21 -1 0
BITMAP
C3
E7
7E
3C
00
00
00
18
18
18
18
18
18
18
18
18
18
18
18
18
18
ENDCHAR
STARTCHAR 01D1
ENCODING 465
SWIDTH 810 0
DWIDTH 27 0
BBX 25 31 1 -1
BITMAP
00C18000
00630000
00360000
001E0000
00000000
00000000
003E0000
01FFC000
07F7F000
0F007800
1C001C00
38000E00
70000700
70000700
60000300
E0000380
E0000380
E0000380
E0000380
E0000380
E0000380
E0000380
60000300
70000700
38000E00
3C001E00
1E003C00
0F80F800
03FFF000
01FFC000
00080000
ENDCHAR
STARTCHAR 01D2
ENCODING 466
SWIDTH 810 0
DWIDTH 27 0
BBX 25 31 1 -1
BITMAP
00C18000
00630000
00360000
001E0000
00000000
00000000
003E0000
01FFC000
07F7F000
0F007800
1C001C00
38000E00
70000700
70000700
60000300
E0000380
E0000380
E0000380
E0000380
E0000380
E0000380
E0000380
60000300
70000700
38000E00
3C001E00
1E003C00
0F80F800
03FFF000
01FFC000
00080000
ENDCHAR
STARTCHAR 01D3
ENCODING 467
SWIDTH 480 0
DWIDTH 16 0
BBX 14 31 1 -1
BITMAP
1870
0C60
0EC0
0780
0000
0000
0000
E00C
E00C
E00C
E00C
E00C
E00C
E00C
E00C
E00C
E00C
E00C
E00C
E00C
E00C
E00C
E00C
E00C
601C
601C
7018
3838
3FF0
0FE0
0100
ENDCHAR
STARTCHAR 01D4
ENCODING 468
SWIDTH 480 0
DWIDTH 16 0
BBX 14 31 1 -1
BITMAP
1870
0C60
0EC0
0780
0000
0000
0000
E00C
E00C
E00C
E00C
E00C
E00C
E00C
E00C
E00C
E00C
E00C
E00C
E00C
E00C
E00C
E00C
E00C
601C
601C
7018
3838
3FF0
0FE0
0100
ENDCHAR
STARTCHAR 02C6
ENCODING 710
SWIDTH 270 0
DWIDTH 9 0
BBX 10 5 0 25
BITMAP
1C00
1E00
3300
6180
C1C0
ENDCHAR
STARTCHAR 02C7
ENCODING 711
SWIDTH 270 0
DWIDTH 9 0
BBX 9 4 0 26
BITMAP
E180
7300
3700
1E00
ENDCHAR
STARTCHAR 02D8
ENCODING 728
SWIDTH 240 0
DWIDTH 8 0
BBX 9 5 0 25
BITMAP
C180
C180
6300
7E00
0800
ENDCHAR
STARTCHAR 02D9
ENCODING 729
SWIDTH 120 0
DWIDTH 4 0
BBX 5 5 0 26
BITMAP
20
F0
F8
F8
70
ENDCHAR
STARTCHAR 02DA
ENCODING 730
SWIDTH 180 0
DWIDTH 6 0
BBX 7 7 0 25
BITMAP
38
7C
C4
86
C4
7C
30
ENDCHAR
STARTCHAR 02DB
ENCODING 731
SWIDTH 180 0
DWIDTH 6 0
BBX 6 6 0 -6
BITMAP
70
C0
C0
C0
FC
78
ENDCHAR
STARTCHAR 02DC
ENCODING 732
SWIDTH 210 0
DWIDTH 7 0
BBX 8 2 0 27
BITMAP
FF
DF
ENDCHAR
STARTCHAR 02DD
ENCODING 733
SWIDTH 300 0
DWIDTH 10 0
BBX 11 5 0 25
BITMAP
18E0
30C0
6180
6300
C300
ENDCHAR
STARTCHAR 0300
ENCODING 768
SWIDTH 0 0
DWIDTH 0 0
BBX 5 5 -5 25
BITMAP
C0
60
30
30
18
ENDCHAR
STARTCHAR 0301
ENCODING 769
SWIDTH 0 0
DWIDTH 0 0
BBX 5 5 -5 25
BITMAP
18
30
60
60
C0
ENDCHAR
STARTCHAR 0302
ENCODING 770
SWIDTH 0 0
DWIDTH 0 0
BBX 10 5 -10 25
BITMAP
0E00
1E00
3300
6180
E0C0
ENDCHAR
STARTCHAR 0303
ENCODING 771
SWIDTH 0 0
DWIDTH 0 0
BBX 8 2 -8 27
BITMAP
FF
DF
ENDCHAR
STARTCHAR 0304
ENCODING 772
SWIDTH 0 0
DWIDTH 0 0
BBX 9 2 -9 27
BITMAP
FF80
FF80
ENDCHAR
STARTCHAR 0306
ENCODING 774
SWIDTH 0 0
DWIDTH 0 0
BBX 9 5 -9 25
BITMAP
C180
C180
6300
7F00
0800
ENDCHAR
STARTCHAR 0307
ENCODING 775
SWIDTH 0 0
DWIDTH 0 0
BBX 4 5 -4 26
BITMAP
60
F0
F0
F0
60
ENDCHAR
STARTCHAR 0308
ENCODING 776
SWIDTH 0 0
DWIDTH 0 0
BBX 12 4 -12 26
BITMAP
78F0
F8F0
78F0
70E0
ENDCHAR
STARTCHAR 0309
ENCODING 777
SWIDTH 0 0
DWIDTH 0 0
BBX 3 7 -3 25
BITMAP
60
60
60
60
C0
C0
60
ENDCHAR
STARTCHAR 030A
ENCODING 778
SWIDTH 0 0
DWIDTH 0 0
BBX 7 7 -7 25
BITMAP
38
7C
C6
C2
46
7C
18
ENDCHAR
STARTCHAR 030B
ENCODING 779
SWIDTH 0 0
DWIDTH 0 0
BBX 11 5 -11 25
BITMAP
1860
38C0
3180
6180
C300
ENDCHAR
STARTCHAR 030C
ENCODING 780
SWIDTH 0 0
DWIDTH 0 0
BBX 9 4 -9 26
BITMAP
C380
6700
7600
3C00
ENDCHAR
STARTCHAR 031B
ENCODING 795
SWIDTH 0 0
DWIDTH 0 0
BBX 4 4 -4 22
BITMAP
30
30
60
C0
ENDCHAR
STARTCHAR 0323
ENCODING 803
SWIDTH 0 0
DWIDTH 0 0
BBX 5 5 -5 -9
BITMAP
30
78
F8
78
30
ENDCHAR
STARTCHAR 0326
ENCODING 806
SWIDTH 0 0
DWIDTH 0 0
BBX 4 5 -4 -7
BITMAP
70
60
60
C0
C0
ENDCHAR
STARTCHAR 0327
ENCODING 807
SWIDTH 0 0
DWIDTH 0 0
BBX 7 7 -7 -7
BITMAP
18
18
06
06
C6
EE
3C
ENDCHAR
STARTCHAR 0328
ENCODING 808
SWIDTH 0 0
DWIDTH 0 0
BBX 6 6 -6 -6
BITMAP
70
C0
80
80
FC
78
ENDCHAR
STARTCHAR 0335
ENCODING 821
SWIDTH 0 0
DWIDTH 0 0
BBX 11 3 -11 6
BITMAP
FFE0
FFE0
FFE0
ENDCHAR
STARTCHAR 1EA0
ENCODING 7840
SWIDTH 540 0
DWIDTH 18 0
BBX 16 33 2 -9
BITMAP
0780
3FE0
7DF0
7070
E038
E018
C018
C018
C018
C018
C018
C018
C018
C018
C018
C018
C018
C018
C018
C018
C018
C018
FFFF
FFFF
0000
0000
0000
0000
0200
0780
0F80
0F80
0700
ENDCHAR
STARTCHAR 1EA1
ENCODING 7841
SWIDTH 540 0
DWIDTH 18 0
BBX 16 33 2 -9
BITMAP
0780
3FE0
7DF0
7070
E038
E018
C018
C018
C018
C018
C018
C018
C018
C018
C018
C018
C018
C018
C018
C018
C018
C018
FFFF
FFFF
0000
0000
0000
0000
0200
0780
0F80
0F80
0700
ENDCHAR
STARTCHAR 1EA2
ENCODING 7842
SWIDTH 540 0
DWIDTH 18 0
BBX 16 32 2 0
BITMAP
0200
0300
0300
0200
0600
0600
0200
0000
0780
3FE0
7DF0
7070
E038
E018
C018
C018
C018
C018
C018
C018
C018
C018
C018
C018
C018
C018
C018
C018
C018
C018
FFFF
FFFF
ENDCHAR
STARTCHAR 1EA3
ENCODING 7843
SWIDTH 540 0
DWIDTH 18 0
BBX 16 32 2 0
BITMAP
0200
0300
0300
0200
0600
0600
0200
0000
0780
3FE0
7DF0
7070
E038
E018
C018
C018
C018
C018
C018
C018
C018
C018
C018
C018
C018
C018
C018
C018
C018
C018
FFFF
FFFF
ENDCHAR
STARTCHAR 1EA4
ENCODING 7844
SWIDTH 540 0
DWIDTH 18 0
BBX 16 33 2 0
BITMAP
0006
000E
000C
0718
0F90
1DC0
18C0
3060
0000
0780
3FE0
7DF0
7070
E038
E018
C018
C018
C018
C018
C018
C018
C018
C018
C018
C018
C018
C018
C018
C018
C018
C018
FFFF
FFFF
ENDCHAR
STARTCHAR 1EA5
ENCODING 7845
SWIDTH 540 0
DWIDTH 18 0
BBX 16 33 2 0
BITMAP
0006
000E
000C
0718
0F90
1DC0
18C0
3060
0000
0780
3FE0
7DF0
7070
E038
E018
C018
C018
C018
C018
C018
C018
C018
C018
C018
C018
C018
C018
C018
C018
C018
C018
FFFF
FFFF
ENDCHAR
STARTCHAR 1EA6
ENCODING 7846
SWIDTH 540 0
DWIDTH 18 0
BBX 19 33 -1 0
BITMAP
C00000
600000
300000
30E000
19F000
03B800
031800
060C00
000000
00F000
07FC00
0FBE00
0E0E00
1C0700
1C0300
180300
180300
180300
180300
180300
180300
180300
180300
180300
180300
180300
180300
180300
180300
180300
180300
1FFFE0
1FFFE0
ENDCHAR
STARTCHAR 1EA7
ENCODING 7847
SWIDTH 540 0
DWIDTH 18 0
BBX 19 33 -1 0
BITMAP
C00000
600000
300000
30E000
19F000
03B800
031800
060C00
000000
00F000
07FC00
0FBE00
0E0E00
1C0700
1C0300
180300
180300
180300
180300
180300
180300
180300
180300
180300
180300
180300
180300
180300
180300
180300
180300
1FFFE0
1FFFE0
ENDCHAR
STARTCHAR 1EA8
ENCODING 7848
SWIDTH 540 0
DWIDTH 18 0
BBX 16 34 2 0
BITMAP
0018
0018
0018
0030
0730
0F90
1DC0
18C0
3060
0000
0780
3FE0
7DF0
7070
E038
E018
C018
C018
C018
C018
C018
C018
C018
C018
C018
C018
C018
C018
C018
C018
C018
C018
FFFF
FFFF
ENDCHAR
STARTCHAR 1EA9
ENCODING 7849
SWIDTH 540 0
DWIDTH 18 0
BBX 16 34 2 0
BITMAP
0018
0018
0018
0030
0730
0F90
1DC0
18C0
3060
0000
0780
3FE0
7DF0
7070
E038
E018
C018
C018
C018
C018
C018
C018
C018
C018
C018
C018
C018
C018
C018
C018
C018
C018
FFFF
FFFF
ENDCHAR
STARTCHAR 1EAA
ENCODING 7850
SWIDTH 540 0
DWIDTH 18 0
BBX 16 33 2 0
BITMAP
03E0
03FC
0008
0700
0F80
1DC0
18C0
3060
0000
0780
3FE0
7DF0
7070
E038
E018
C018
C018
C018
C018
C018
C018
C018
C018
C018
C018
C018
C018
C018
C018
C018
C018
FFFF
FFFF
ENDCHAR
STARTCHAR 1EAB
ENCODING 7851
SWIDTH 540 0
DWIDTH 18 0
BBX 16 33 2 0
BITMAP
03E0
03FC
0008
0700
0F80
1DC0
18C0
3060
0000
0780
3FE0
7DF0
7070
E038
E018
C018
C018
C018
C018
C018
C018
C018
C018
C018
C018
C018
C018
C018
C018
C018
C018
FFFF
FFFF
ENDCHAR
STARTCHAR 1EAC
ENCODING 7852
SWIDTH 540 0
DWIDTH 18 0
BBX 16 39 2 -9
BITMAP
0700
0F80
1DC0
18C0
3060
0000
0780
3FE0
7DF0
7070
E038
E018
C018
C018
C018
C018
C018
C018
C018
C018
C018
C018
C018
C018
C018
C018
C018
C018
FFFF
FFFF
0000
0000
0000
0000
0200
0780
0F80
0F80
0700
ENDCHAR
STARTCHAR 1EAD
ENCODING 7853
SWIDTH 540 0
DWIDTH 18 0
BBX 16 39 2 -9
BITMAP
0700
0F80
1DC0
18C0
3060
0000
0780
3FE0
7DF0
7070
E038
E018
C018
C018
C018
C018
C018
C018
C018
C018
C018
C018
C018
C018
C018
C018
C018
C018
FFFF
FFFF
0000
0000
0000
0000
0200
0780
0F80
0F80
0700
ENDCHAR
STARTCHAR 1EAE
ENCODING 7854
SWIDTH 540 0
DWIDTH 18 0
BBX 16 34 2 0
BITMAP
00C0
01C0
0180
0300
3260
3060
18C0
1FC0
0200
0000
0780
3FE0
7DF0
7070
E038
E018
C018
C018
C018
C018
C018
C018
C018
C018
C018
C018
C018
C018
C018
C018
C018
C018
FFFF
FFFF
ENDCHAR
STARTCHAR 1EAF
ENCODING 7855
SWIDTH 540 0
DWIDTH 18 0
BBX 16 34 2 0
BITMAP
00C0
01C0
0180
0300
3260
3060
18C0
1FC0
0200
0000
0780
3FE0
7DF0
7070
E038
E018
C018
C018
C018
C018
C018
C018
C018
C018
C018
C018
C018
C018
C018
C018
C018
C018
FFFF
FFFF
ENDCHAR
STARTCHAR 1EB0
ENCODING 7856
SWIDTH 540 0
DWIDTH 18 0
BBX 16 34 2 0
BITMAP
3000
1800
0C00
0C00
3660
3060
18C0
1FC0
0200
0000
0780
3FE0
7DF0
7070
E038
E018
C018
C018
C018
C018
C018
C018
C018
C018
C018
C018
C018
C018
C018
C018
C018
C018
FFFF
FFFF
ENDCHAR
STARTCHAR 1EB1
ENCODING 7857
SWIDTH 540 0
DWIDTH 18 0
BBX 16 34 2 0
BITMAP
3000
1800
0C00
0C00
3660
3060
18C0
1FC0
0200
0000
0780
3FE0
7DF0
7070
E038
E018
C018
C018
C018
C018
C018
C018
C018
C018
C018
C018
C018
C018
C018
C018
C018
C018
FFFF
FFFF
ENDCHAR
STARTCHAR 1EB2
ENCODING 7858
SWIDTH 540 0
DWIDTH 18 0
BBX 16 35 2 0
BITMAP
0300
0300
0300
0300
0200
3260
3360
18C0
1FC0
0200
0000
0780
3FE0
7DF0
7070
E038
E018
C018
C018
C018
C018
C018
C018
C018
C018
C018
C018
C018
C018
C018
C018
C018
C018
FFFF
FFFF
ENDCHAR
STARTCHAR 1EB3
ENCODING 7859
SWIDTH 540 0
DWIDTH 18 0
BBX 16 35 2 0
BITMAP
0300
0300
0300
0300
0200
3260
3360
18C0
1FC0
0200
0000
0780
3FE0
7DF0
7070
E038
E018
C018
C018
C018
C018
C018
C018
C018
C018
C018
C018
C018
C018
C018
C018
C018
C018
FFFF
FFFF
ENDCHAR
STARTCHAR 1EB4
ENCODING 7860
SWIDTH 540 0
DWIDTH 18 0
BBX 16 33 2 0
BITMAP
1F60
1FE0
0000
3060
3060
18C0
1FC0
0200
0000
0780
3FE0
7DF0
7070
E038
E018
C018
C018
C018
C018
C018
C018
C018
C018
C018
C018
C018
C018
C018
C018
C018
C018
FFFF
FFFF
ENDCHAR
STARTCHAR 1EB5
ENCODING 7861
SWIDTH 540 0
DWIDTH 18 0
BBX 16 33 2 0
BITMAP
1F60
1FE0
0000
3060
3060
18C0
1FC0
0200
0000
0780
3FE0
7DF0
7070
E038
E018
C018
C018
C018
C018
C018
C018
C018
C018
C018
C018
C018
C018
C018
C018
C018
C018
FFFF
FFFF
ENDCHAR
STARTCHAR 1EB6
ENCODING 7862
SWIDTH 540 0
DWIDTH 18 0
BBX 16 39 2 -9
BITMAP
3060
3060
18C0
1FC0
0200
0000
0780
3FE0
7DF0
7070
E038
E018
C018
C018
C018
C018
C018
C018
C018
C018
C018
C018
C018
C018
C018
C018
C018
C018
FFFF
FFFF
0000
0000
0000
0000
0200
0780
0F80
0F80
0700
ENDCHAR
STARTCHAR 1EB7
ENCODING 7863
SWIDTH 540 0
DWIDTH 18 0
BBX 16 39 2 -9
BITMAP
3060
3060
18C0
1FC0
0200
0000
0780
3FE0
7DF0
7070
E038
E018
C018
C018
C018
C018
C018
C018
C018
C018
C018
C018
C018
C018
C018
C018
C018
C018
FFFF
FFFF
0000
0000
0000
0000
0200
0780
0F80
0F80
0700
ENDCHAR
STARTCHAR 1EB8
ENCODING 7864
SWIDTH 480 0
DWIDTH 16 0
BBX 15 32 1 -9
BITMAP
3FE0
3FE0
3800
3800
3800
3800
3800
3800
3800
3800
FFF8
FFF8
3800
3800
3800
3800
3800
3800
3800
3800
3800
3FFE
3FFE
0000
0000
0000
0000
00C0
01E0
01E0
01E0
00C0
ENDCHAR
STARTCHAR 1EB9
ENCODING 7865
SWIDTH 480 0
DWIDTH 16 0
BBX 15 32 1 -9
BITMAP
3FE0
3FE0
3800
3800
3800
3800
3800
3800
3800
3800
FFF8
FFF8
3800
3800
3800
3800
3800
3800
3800
3800
3800
3FFE
3FFE
0000
0000
0000
0000
00C0
01E0
01E0
01E0
00C0
ENDCHAR
STARTCHAR 1EBA
ENCODING 7866
SWIDTH 480 0
DWIDTH 16 0
BBX 15 32 1 0
BITMAP
0300
0300
0300
0200
0600
0600
0300
0000
0000
3FE0
3FE0
3800
3800
3800
3800
3800
3800
3800
3800
FFF8
FFF8
3800
3800
3800
3800
3800
3800
3800
3800
3800
3FFE
3FFE
ENDCHAR
STARTCHAR 1EBB
ENCODING 7867
SWIDTH 480 0
DWIDTH 16 0
BBX 15 32 1 0
BITMAP
0300
0300
0300
0200
0600
0600
0300
0000
0000
3FE0
3FE0
3800
3800
3800
3800
3800
3800
3800
3800
FFF8
FFF8
3800
3800
3800
3800
3800
3800
3800
3800
3800
3FFE
3FFE
ENDCHAR
STARTCHAR 1EBC
ENCODING 7868
SWIDTH 480 0
DWIDTH 16 0
BBX 15 29 1 0
BITMAP
3FC0
37C0
0000
0000
0000
0000
3FE0
3FE0
3800
3800
3800
3800
3800
3800
3800
3800
FFF8
FFF8
3800
3800
3800
3800
3800
3800
3800
3800
3800
3FFE
3FFE
ENDCHAR
STARTCHAR 1EBD
ENCODING 7869
SWIDTH 480 0
DWIDTH 16 0
BBX 15 29 1 0
BITMAP
3FC0
37C0
0000
0000
0000
0000
3FE0
3FE0
3800
3800
3800
3800
3800
3800
3800
3800
FFF8
FFF8
3800
3800
3800
3800
3800
3800
3800
3800
3800
3FFE
3FFE
ENDCHAR
STARTCHAR 1EBE
ENCODING 7870
SWIDTH 480 0
DWIDTH 16 0
BBX 16 33 1 0
BITMAP
0007
0006
000C
0718
0F90
0CC0
18E0
3060
0000
0000
3FE0
3FE0
3800
3800
3800
3800
3800
3800
3800
3800
FFF8
FFF8
3800
3800
3800
3800
3800
3800
3800
3800
3800
3FFE
3FFE
ENDCHAR
STARTCHAR 1EBF
ENCODING 7871
SWIDTH 480 0
DWIDTH 16 0
BBX 16 33 1 0
BITMAP
0007
0006
000C
0718
0F90
0CC0
18E0
3060
0000
0000
3FE0
3FE0
3800
3800
3800
3800
3800
3800
3800
3800
FFF8
FFF8
3800
3800
3800
3800
3800
3800
3800
3800
3800
3FFE
3FFE
ENDCHAR
STARTCHAR 1EC0
ENCODING 7872
SWIDTH 480 0
DWIDTH 16 0
BBX 18 33 -2 0
BITMAP
E00000
600000
300000
18E000
19F000
019800
031C00
060C00
000000
000000
07FC00
07FC00
070000
070000
070000
070000
070000
070000
070000
070000
1FFF00
1FFF00
070000
070000
070000
070000
070000
070000
070000
070000
070000
07FFC0
07FFC0
ENDCHAR
STARTCHAR 1EC1
ENCODING 7873
SWIDTH 480 0
DWIDTH 16 0
BBX 18 33 -2 0
BITMAP
E00000
600000
300000
18E000
19F000
019800
031C00
060C00
000000
000000
07FC00
07FC00
070000
070000
070000
070000
070000
070000
070000
070000
1FFF00
1FFF00
070000
070000
070000
070000
070000
070000
070000
070000
070000
07FFC0
07FFC0
ENDCHAR
STARTCHAR 1EC2
ENCODING 7874
SWIDTH 480 0
DWIDTH 16 0
BBX 15 34 1 0
BITMAP
0018
0018
0018
0010
0710
0F98
0CC0
18E0
3060
0000
0000
3FE0
3FE0
3800
3800
3800
3800
3800
3800
3800
3800
FFF8
FFF8
3800
3800
3800
3800
3800
3800
3800
3800
3800
3FFE
3FFE
ENDCHAR
STARTCHAR 1EC3
ENCODING 7875
SWIDTH 480 0
DWIDTH 16 0
BBX 15 34 1 0
BITMAP
0018
0018
0018
0010
0710
0F98
0CC0
18E0
3060
0000
0000
3FE0
3FE0
3800
3800
3800
3800
3800
3800
3800
3800
FFF8
FFF8
3800
3800
3800
3800
3800
3800
3800
3800
3800
3FFE
3FFE
ENDCHAR
STARTCHAR 1EC4
ENCODING 7876
SWIDTH 480 0
DWIDTH 16 0
BBX 15 33 1 0
BITMAP
01E2
01FE
0008
0700
0F80
0CC0
18E0
3060
0000
0000
3FE0
3FE0
3800
3800
3800
3800
3800
3800
3800
3800
FFF8
FFF8
3800
3800
3800
3800
3800
3800
3800
3800
3800
3FFE
3FFE
ENDCHAR
STARTCHAR 1EC5
ENCODING 7877
SWIDTH 480 0
DWIDTH 16 0
BBX 15 33 1 0
BITMAP
01E2
01FE
0008
0700
0F80
0CC0
18E0
3060
0000
0000
3FE0
3FE0
3800
3800
3800
3800
3800
3800
3800
3800
FFF8
FFF8
3800
3800
3800
3800
3800
3800
3800
3800
3800
3FFE
3FFE
ENDCHAR
STARTCHAR 1EC6
ENCODING 7878
SWIDTH 480 0
DWIDTH 16 0
BBX 15 39 1 -9
BITMAP
0700
0F80
0CC0
18E0
3060
0000
0000
3FE0
3FE0
3800
3800
3800
3800
3800
3800
3800
3800
FFF8
FFF8
3800
3800
3800
3800
3800
3800
3800
3800
3800
3FFE
3FFE
0000
0000
0000
0000
00C0
01E0
01E0
01E0
00C0
ENDCHAR
STARTCHAR 1EC7
ENCODING 7879
SWIDTH 480 0
DWIDTH 16 0
BBX 15 39 1 -9
BITMAP
0700
0F80
0CC0
18E0
3060
0000
0000
3FE0
3FE0
3800
3800
3800
3800
3800
3800
3800
3800
FFF8
FFF8
3800
3800
3800
3800
3800
3800
3800
3800
3800
3FFE
3FFE
0000
0000
0000
0000
00C0
01E0
01E0
01E0
00C0
ENDCHAR
STARTCHAR 1EC8
ENCODING 7880
SWIDTH 150 0
DWIDTH 5 0
BBX 2 23 2 0
BITMAP
C0
C0
C0
C0
80
80
C0
00
00
C0
C0
C0
C0
C0
C0
C0
C0
C0
C0
C0
C0
C0
C0
ENDCHAR
STARTCHAR 1EC9
ENCODING 7881
SWIDTH 150 0
DWIDTH 5 0
BBX 2 23 2 0
BITMAP
C0
C0
C0
C0
80
80
C0
00
00
C0
C0
C0
C0
C0
C0
C0
C0
C0
C0
C0
C0
C0
C0
ENDCHAR
STARTCHAR 1ECA
ENCODING 7882
SWIDTH 150 0
DWIDTH 5 0
BBX 7 35 -1 -9
BITMAP
10
10
18
FE
38
3C
24
00
00
00
00
00
18
18
18
18
18
18
18
18
18
18
18
18
18
18
00
00
00
00
18
3C
3C
3C
18
ENDCHAR
STARTCHAR 1ECB
ENCODING 7883
SWIDTH 150 0
DWIDTH 5 0
BBX 7 35 -1 -9
BITMAP
10
10
18
FE
38
3C
24
00
00
00
00
00
18
18
18
18
18
18
18
18
18
18
18
18
18
18
00
00
00
00
18
3C
3C
3C
18
ENDCHAR
STARTCHAR 1ECC
ENCODING 7884
SWIDTH 810 0
DWIDTH 27 0
BBX 25 33 1 -9
BITMAP
003E0000
01FFC000
07F7F000
0F007800
1C001C00
38000E00
70000700
70000700
60000300
E0000380
E0000380
E0000380
E0000380
E0000380
E0000380
E0000380
60000300
70000700
38000E00
3C001E00
1E003C00
0F80F800
03FFF000
01FFC000
00080000
00000000
00000000
00000000
00080000
003E0000
003E0000
003E0000
001C0000
ENDCHAR
STARTCHAR 1ECD
ENCODING 7885
SWIDTH 810 0
DWIDTH 27 0
BBX 25 33 1 -9
BITMAP
003E0000
01FFC000
07F7F000
0F007800
1C001C00
38000E00
70000700
70000700
60000300
E0000380
E0000380
E0000380
E0000380
E0000380
E0000380
E0000380
60000300
70000700
38000E00
3C001E00
1E003C00
0F80F800
03FFF000
01FFC000
00080000
00000000
00000000
00000000
00080000
003E0000
003E0000
003E0000
001C0000
ENDCHAR
STARTCHAR 1ECE
ENCODING 7886
SWIDTH 810 0
DWIDTH 27 0
BBX 25 33 1 -1
BITMAP
00080000
000C0000
000C0000
00080000
00180000
00180000
00080000
00000000
003E0000
01FFC000
07F7F000
0F007800
1C001C00
38000E00
70000700
70000700
60000300
E0000380
E0000380
E0000380
E0000380
E0000380
E0000380
E0000380
60000300
70000700
38000E00
3C001E00
1E003C00
0F80F800
03FFF000
01FFC000
00080000
ENDCHAR
STARTCHAR 1ECF
ENCODING 7887
SWIDTH 810 0
DWIDTH 27 0
BBX 25 33 1 -1
BITMAP
00080000
000C0000
000C0000
00080000
00180000
00180000
00080000
00000000
003E0000
01FFC000
07F7F000
0F007800
1C001C00
38000E00
70000700
70000700
60000300
E0000380
E0000380
E0000380
E0000380
E0000380
E0000380
E0000380
60000300
70000700
38000E00
3C001E00
1E003C00
0F80F800
03FFF000
01FFC000
00080000
ENDCHAR
STARTCHAR 1ED0
ENCODING 7888
SWIDTH 810 0
DWIDTH 27 0
BBX 25 34 1 -1
BITMAP
00001800
00003800
00003000
001C6000
003E4000
00770000
00630000
00C18000
00000000
003E0000
01FFC000
07F7F000
0F007800
1C001C00
38000E00
70000700
70000700
60000300
E0000380
E0000380
E0000380
E0000380
E0000380
E0000380
E0000380
60000300
70000700
38000E00
3C001E00
1E003C00
0F80F800
03FFF000
01FFC000
00080000
ENDCHAR
STARTCHAR 1ED1
ENCODING 7889
SWIDTH 810 0
DWIDTH 27 0
BBX 25 34 1 -1
BITMAP
00001800
00003800
00003000
001C6000
003E4000
00770000
00630000
00C18000
00000000
003E0000
01FFC000
07F7F000
0F007800
1C001C00
38000E00
70000700
70000700
60000300
E0000380
E0000380
E0000380
E0000380
E0000380
E0000380
E0000380
60000300
70000700
38000E00
3C001E00
1E003C00
0F80F800
03FFF000
01FFC000
00080000
ENDCHAR
STARTCHAR 1ED2
ENCODING 7890
SWIDTH 810 0
DWIDTH 27 0
BBX 25 34 1 -1
BITMAP
18000000
0C000000
06000000
061C0000
033E0000
00770000
00630000
00C18000
00000000
003E0000
01FFC000
07F7F000
0F007800
1C001C00
38000E00
70000700
70000700
60000300
E0000380
E0000380
E0000380
E0000380
E0000380
E0000380
E0000380
60000300
70000700
38000E00
3C001E00
1E003C00
0F80F800
03FFF000
01FFC000
00080000
ENDCHAR
STARTCHAR 1ED3
ENCODING 7891
SWIDTH 810 0
DWIDTH 27 0
BBX 25 34 1 -1
BITMAP
18000000
0C000000
06000000
061C0000
033E0000
00770000
00630000
00C18000
00000000
003E0000
01FFC000
07F7F000
0F007800
1C001C00
38000E00
70000700
70000700
60000300
E0000380
E0000380
E0000380
E0000380
E0000380
E0000380
E0000380
60000300
70000700
38000E00
3C001E00
1E003C00
0F80F800
03FFF000
01FFC000
00080000
ENDCHAR
STARTCHAR 1ED4
ENCODING 7892
SWIDTH 810 0
DWIDTH 27 0
BBX 25 35 1 -1
BITMAP
00006000
00006000
00006000
0000C000
001CC000
003E4000
00770000
00630000
00C18000
00000000
003E0000
01FFC000
07F7F000
0F007800
1C001C00
38000E00
70000700
70000700
60000300
E0000380
E0000380
E0000380
E0000380
E0000380
E0000380
E0000380
60000300
70000700
38000E00
3C001E00
1E003C00
0F80F800
03FFF000
01FFC000
00080000
ENDCHAR
STARTCHAR 1ED5
ENCODING 7893
SWIDTH 810 0
DWIDTH 27 0
BBX 25 35 1 -1
BITMAP
00006000
00006000
00006000
0000C000
001CC000
003E4000
00770000
00630000
00C18000
00000000
003E0000
01FFC000
07F7F000
0F007800
1C001C00
38000E00
70000700
70000700
60000300
E0000380
E0000380
E0000380
E0000380
E0000380
E0000380
E0000380
60000300
70000700
38000E00
3C001E00
1E003C00
0F80F800
03FFF000
01FFC000
00080000
ENDCHAR
STARTCHAR 1ED6
ENCODING 7894
SWIDTH 810 0
DWIDTH 27 0
BBX 25 34 1 -1
BITMAP
000F8000
000FF000
00002000
001C0000
003E0000
00770000
00630000
00C18000
00000000
003E0000
01FFC000
07F7F000
0F007800
1C001C00
38000E00
70000700
70000700
60000300
E0000380
E0000380
E0000380
E0000380
E0000380
E0000380
E0000380
60000300
70000700
38000E00
3C001E00
1E003C00
0F80F800
03FFF000
01FFC000
00080000
ENDCHAR
STARTCHAR 1ED7
ENCODING 7895
SWIDTH 810 0
DWIDTH 27 0
BBX 25 34 1 -1
BITMAP
000F8000
000FF000
00002000
001C0000
003E0000
00770000
00630000
00C18000
00000000
003E0000
01FFC000
07F7F000
0F007800
1C001C00
38000E00
70000700
70000700
60000300
E0000380
E0000380
E0000380
E0000380
E0000380
E0000380
E0000380
60000300
70000700
38000E00
3C001E00
1E003C00
0F80F800
03FFF000
01FFC000
00080000
ENDCHAR
STARTCHAR 1ED8
ENCODING 7896
SWIDTH 810 0
DWIDTH 27 0
BBX 25 39 1 -9
BITMAP
001C0000
003E0000
00770000
00630000
00C18000
00000000
003E0000
01FFC000
07F7F000
0F007800
1C001C00
38000E00
70000700
70000700
60000300
E0000380
E0000380
E0000380
E0000380
E0000380
E0000380
E0000380
60000300
70000700
38000E00
3C001E00
1E003C00
0F80F800
03FFF000
01FFC000
00080000
00000000
00000000
00000000
00080000
003E0000
003E0000
003E0000
001C0000
ENDCHAR
STARTCHAR 1ED9
ENCODING 7897
SWIDTH 810 0
DWIDTH 27 0
BBX 25 39 1 -9
BITMAP
001C0000
003E0000
00770000
00630000
00C18000
00000000
003E0000
01FFC000
07F7F000
0F007800
1C001C00
38000E00
70000700
70000700
60000300
E0000380
E0000380
E0000380
E0000380
E0000380
E0000380
E0000380
60000300
70000700
38000E00
3C001E00
1E003C00
0F80F800
03FFF000
01FFC000
00080000
00000000
00000000
00000000
00080000
003E0000
003E0000
003E0000
001C0000
ENDCHAR
STARTCHAR 1EDA
ENCODING 7898
SWIDTH 810 0
DWIDTH 27 0
BBX 25 31 1 -1
BITMAP
00030000
00060000
000C0000
000C0000
00180C00
00001C00
003E1800
01FFF000
07F7F000
0F007800
1C001C00
38000E00
70000700
70000700
60000300
E0000380
E0000380
E0000380
E0000380
E0000380
E0000380
E0000380
60000300
70000700
38000E00
3C001E00
1E003C00
0F80F800
03FFF000
01FFC000
00080000
ENDCHAR
STARTCHAR 1EDB
ENCODING 7899
SWIDTH 810 0
DWIDTH 27 0
BBX 25 31 1 -1
BITMAP
00030000
00060000
000C0000
000C0000
00180C00
00001C00
003E1800
01FFF000
07F7F000
0F007800
1C001C00
38000E00
70000700
70000700
60000300
E0000380
E0000380
E0000380
E0000380
E0000380
E0000380
E0000380
60000300
70000700
38000E00
3C001E00
1E003C00
0F80F800
03FFF000
01FFC000
00080000
ENDCHAR
STARTCHAR 1EDC
ENCODING 7900
SWIDTH 810 0
DWIDTH 27 0
BBX 25 31 1 -1
BITMAP
00600000
00300000
00180000
00180000
000C0C00
00001C00
003E1800
01FFF000
07F7F000
0F007800
1C001C00
38000E00
70000700
70000700
60000300
E0000380
E0000380
E0000380
E0000380
E0000380
E0000380
E0000380
60000300
70000700
38000E00
3C001E00
1E003C00
0F80F800
03FFF000
01FFC000
00080000
ENDCHAR
STARTCHAR 1EDD
ENCODING 7901
SWIDTH 810 0
DWIDTH 27 0
BBX 25 31 1 -1
BITMAP
00600000
00300000
00180000
00180000
000C0C00
00001C00
003E1800
01FFF000
07F7F000
0F007800
1C001C00
38000E00
70000700
70000700
60000300
E0000380
E0000380
E0000380
E0000380
E0000380
E0000380
E0000380
60000300
70000700
38000E00
3C001E00
1E003C00
0F80F800
03FFF000
01FFC000
00080000
ENDCHAR
STARTCHAR 1EDE
ENCODING 7902
SWIDTH 810 0
DWIDTH 27 0
BBX 25 33 1 -1
BITMAP
00080000
000C0000
000C0000
00080000
00180000
00180000
00080C00
00001C00
003E1800
01FFF000
07F7F000
0F007800
1C001C00
38000E00
70000700
70000700
60000300
E0000380
E0000380
E0000380
E0000380
E0000380
E0000380
E0000380
60000300
70000700
38000E00
3C001E00
1E003C00
0F80F800
03FFF000
01FFC000
00080000
ENDCHAR
STARTCHAR 1EDF
ENCODING 7903
SWIDTH 810 0
DWIDTH 27 0
BBX 25 33 1 -1
BITMAP
00080000
000C0000
000C0000
00080000
00180000
00180000
00080C00
00001C00
003E1800
01FFF000
07F7F000
0F007800
1C001C00
38000E00
70000700
70000700
60000300
E0000380
E0000380
E0000380
E0000380
E0000380
E0000380
E0000380
60000300
70000700
38000E00
3C001E00
1E003C00
0F80F800
03FFF000
01FFC000
00080000
ENDCHAR
STARTCHAR 1EE0
ENCODING 7904
SWIDTH 810 0
DWIDTH 27 0
BBX 25 30 1 -1
BITMAP
00FF0000
00DF0000
00000000
00000C00
00001C00
003E1800
01FFF000
07F7F000
0F007800
1C001C00
38000E00
70000700
70000700
60000300
E0000380
E0000380
E0000380
E0000380
E0000380
E0000380
E0000380
60000300
70000700
38000E00
3C001E00
1E003C00
0F80F800
03FFF000
01FFC000
00080000
ENDCHAR
STARTCHAR 1EE1
ENCODING 7905
SWIDTH 810 0
DWIDTH 27 0
BBX 25 30 1 -1
BITMAP
00FF0000
00DF0000
00000000
00000C00
00001C00
003E1800
01FFF000
07F7F000
0F007800
1C001C00
38000E00
70000700
70000700
60000300
E0000380
E0000380
E0000380
E0000380
E0000380
E0000380
E0000380
60000300
70000700
38000E00
3C001E00
1E003C00
0F80F800
03FFF000
01FFC000
00080000
ENDCHAR
STARTCHAR 1EE2
ENCODING 7906
SWIDTH 810 0
DWIDTH 27 0
BBX 25 35 1 -9
BITMAP
00000C00
00001C00
003E1800
01FFF000
07F7F000
0F007800
1C001C00
38000E00
70000700
70000700
60000300
E0000380
E0000380
E0000380
E0000380
E0000380
E0000380
E0000380
60000300
70000700
38000E00
3C001E00
1E003C00
0F80F800
03FFF000
01FFC000
00080000
00000000
00000000
00000000
00080000
003E0000
003E0000
003E0000
001C0000
ENDCHAR
STARTCHAR 1EE3
ENCODING 7907
SWIDTH 810 0
DWIDTH 27 0
BBX 25 35 1 -9
BITMAP
00000C00
00001C00
003E1800
01FFF000
07F7F000
0F007800
1C001C00
38000E00
70000700
70000700
60000300
E0000380
E0000380
E0000380
E0000380
E0000380
E0000380
E0000380
60000300
70000700
38000E00
3C001E00
1E003C00
0F80F800
03FFF000
01FFC000
00080000
00000000
00000000
00000000
00080000
003E0000
003E0000
003E0000
001C0000
ENDCHAR
STARTCHAR 1EE4
ENCODING 7908
SWIDTH 480 0
DWIDTH 16 0
BBX 14 32 1 -9
BITMAP
E00C
E00C
E00C
E00C
E00C
E00C
E00C
E00C
E00C
E00C
E00C
E00C
E00C
E00C
E00C
E00C
E00C
601C
601C
7018
3838
3FF0
0FE0
0100
0000
0000
0000
0300
0780
07C0
0780
0300
ENDCHAR
STARTCHAR 1EE5
ENCODING 7909
SWIDTH 480 0
DWIDTH 16 0
BBX 14 32 1 -9
BITMAP
E00C
E00C
E00C
E00C
E00C
E00C
E00C
E00C
E00C
E00C
E00C
E00C
E00C
E00C
E00C
E00C
E00C
601C
601C
7018
3838
3FF0
0FE0
0100
0000
0000
0000
0300
0780
07C0
0780
0300
ENDCHAR
STARTCHAR 1EE6
ENCODING 7910
SWIDTH 480 0
DWIDTH 16 0
BBX 14 33 1 -1
BITMAP
0300
0100
0100
0300
0300
0300
0300
0000
0000
E00C
E00C
E00C
E00C
E00C
E00C
E00C
E00C
E00C
E00C
E00C
E00C
E00C
E00C
E00C
E00C
E00C
601C
601C
7018
3838
3FF0
0FE0
0100
ENDCHAR
STARTCHAR 1EE7
ENCODING 7911
SWIDTH 480 0
DWIDTH 16 0
BBX 14 33 1 -1
BITMAP
0300
0100
0100
0300
0300
0300
0300
0000
0000
E00C
E00C
E00C
E00C
E00C
E00C
E00C
E00C
E00C
E00C
E00C
E00C
E00C
E00C
E00C
E00C
E00C
601C
601C
7018
3838
3FF0
0FE0
0100
ENDCHAR
STARTCHAR 1EE8
ENCODING 7912
SWIDTH 480 0
DWIDTH 16 0
BBX 16 31 1 -1
BITMAP
00E0
00C0
0180
0300
0303
0003
0003
E00E
E00C
E00C
E00C
E00C
E00C
E00C
E00C
E00C
E00C
E00C
E00C
E00C
E00C
E00C
E00C
E00C
601C
601C
7018
3838
3FF0
0FE0
0100
ENDCHAR
STARTCHAR 1EE9
ENCODING 7913
SWIDTH 480 0
DWIDTH 16 0
BBX 16 31 1 -1
BITMAP
00E0
00C0
0180
0300
0303
0003
0003
E00E
E00C
E00C
E00C
E00C
E00C
E00C
E00C
E00C
E00C
E00C
E00C
E00C
E00C
E00C
E00C
E00C
601C
601C
7018
3838
3FF0
0FE0
0100
ENDCHAR
STARTCHAR 1EEA
ENCODING 7914
SWIDTH 480 0
DWIDTH 16 0
BBX 16 31 1 -1
BITMAP
0C00
0600
0600
0300
0183
0003
0003
E00E
E00C
E00C
E00C
E00C
E00C
E00C
E00C
E00C
E00C
E00C
E00C
E00C
E00C
E00C
E00C
E00C
601C
601C
7018
3838
3FF0
0FE0
0100
ENDCHAR
STARTCHAR 1EEB
ENCODING 7915
SWIDTH 480 0
DWIDTH 16 0
BBX 16 31 1 -1
BITMAP
0C00
0600
0600
0300
0183
0003
0003
E00E
E00C
E00C
E00C
E00C
E00C
E00C
E00C
E00C
E00C
E00C
E00C
E00C
E00C
E00C
E00C
E00C
601C
601C
7018
3838
3FF0
0FE0
0100
ENDCHAR
STARTCHAR 1EEC
ENCODING 7916
SWIDTH 480 0
DWIDTH 16 0
BBX 16 33 1 -1
BITMAP
0300
0100
0100
0300
0300
0300
0303
0003
0003
E00E
E00C
E00C
E00C
E00C
E00C
E00C
E00C
E00C
E00C
E00C
E00C
E00C
E00C
E00C
E00C
E00C
601C
601C
7018
3838
3FF0
0FE0
0100
ENDCHAR
STARTCHAR 1EED
ENCODING 7917
SWIDTH 480 0
DWIDTH 16 0
BBX 16 33 1 -1
BITMAP
0300
0100
0100
0300
0300
0300
0303
0003
0003
E00E
E00C
E00C
E00C
E00C
E00C
E00C
E00C
E00C
E00C
E00C
E00C
E00C
E00C
E00C
E00C
E00C
601C
601C
7018
3838
3FF0
0FE0
0100
ENDCHAR
STARTCHAR 1EEE
ENCODING 7918
SWIDTH 480 0
DWIDTH 16 0
BBX 16 30 1 -1
BITMAP
1FE0
17E0
0000
0003
0003
0003
E00E
E00C
E00C
E00C
E00C
E00C
E00C
E00C
E00C
E00C
E00C
E00C
E00C
E00C
E00C
E00C
E00C
601C
601C
7018
3838
3FF0
0FE0
0100
ENDCHAR
STARTCHAR 1EEF
ENCODING 7919
SWIDTH 480 0
DWIDTH 16 0
BBX 16 30 1 -1
BITMAP
1FE0
17E0
0000
0003
0003
0003
E00E
E00C
E00C
E00C
E00C
E00C
E00C
E00C
E00C
E00C
E00C
E00C
E00C
E00C
E00C
E00C
E00C
601C
601C
7018
3838
3FF0
0FE0
0100
ENDCHAR
STARTCHAR 1EF0
ENCODING 7920
SWIDTH 480 0
DWIDTH 16 0
BBX 16 35 1 -9
BITMAP
0003
0003
0003
E00E
E00C
E00C
E00C
E00C
E00C
E00C
E00C
E00C
E00C
E00C
E00C
E00C
E00C
E00C
E00C
E00C
601C
601C
7018
3838
3FF0
0FE0
0100
0000
0000
0000
0300
0780
07C0
0780
0300
ENDCHAR
STARTCHAR 1EF1
ENCODING 7921
SWIDTH 480 0
DWIDTH 16 0
BBX 16 35 1 -9
BITMAP
0003
0003
0003
E00E
E00C
E00C
E00C
E00C
E00C
E00C
E00C
E00C
E00C
E00C
E00C
E00C
E00C
E00C
E00C
E00C
601C
601C
7018
3838
3FF0
0FE0
0100
0000
0000
0000
0300
0780
07C0
0780
0300
ENDCHAR
STARTCHAR 1EF2
ENCODING 7922
SWIDTH 480 0
DWIDTH 16 0
BBX 14 30 1 0
BITMAP
0C00
0E00
0600
0300
0180
0000
0000
E01C
E01C
E01C
E01C
E01C
E01C
E01C
E01C
E01C
E01C
E01C
E01C
601C
7038
7878
3FF0
0FE0
0300
0300
0300
0300
0300
0300
ENDCHAR
STARTCHAR 1EF3
ENCODING 7923
SWIDTH 480 0
DWIDTH 16 0
BBX 14 30 1 0
BITMAP
0C00
0E00
0600
0300
0180
0000
0000
E01C
E01C
E01C
E01C
E01C
E01C
E01C
E01C
E01C
E01C
E01C
E01C
601C
7038
7878
3FF0
0FE0
0300
0300
0300
0300
0300
0300
ENDCHAR
STARTCHAR 1EF4
ENCODING 7924
SWIDTH 480 0
DWIDTH 16 0
BBX 14 32 1 -9
BITMAP
E01C
E01C
E01C
E01C
E01C
E01C
E01C
E01C
E01C
E01C
E01C
E01C
601C
7038
7878
3FF0
0FE0
0300
0300
0300
0300
0300
0300
0000
0000
0000
0000
0300
0780
0780
0780
0300
ENDCHAR
STARTCHAR 1EF5
ENCODING 7925
SWIDTH 480 0
DWIDTH 16 0
BBX 14 32 1 -9
BITMAP
E01C
E01C
E01C
E01C
E01C
E01C
E01C
E01C
E01C
E01C
E01C
E01C
601C
7038
7878
3FF0
0FE0
0300
0300
0300
0300
0300
0300
0000
0000
0000
0000
0300
0780
0780
0780
0300
ENDCHAR
STARTCHAR 1EF6
ENCODING 7926
SWIDTH 480 0
DWIDTH 16 0
BBX 14 32 1 0
BITMAP
0300
0100
0100
0300
0200
0300
0300
0000
0000
E01C
E01C
E01C
E01C
E01C
E01C
E01C
E01C
E01C
E01C
E01C
E01C
601C
7038
7878
3FF0
0FE0
0300
0300
0300
0300
0300
0300
ENDCHAR
STARTCHAR 1EF7
ENCODING 7927
SWIDTH 480 0
DWIDTH 16 0
BBX 14 32 1 0
BITMAP
0300
0100
0100
0300
0200
0300
0300
0000
0000
E01C
E01C
E01C
E01C
E01C
E01C
E01C
E01C
E01C
E01C
E01C
E01C
601C
7038
7878
3FF0
0FE0
0300
0300
0300
0300
0300
0300
ENDCHAR
STARTCHAR 1EF8
ENCODING 7928
SWIDTH 480 0
DWIDTH 16 0
BBX 14 29 1 0
BITMAP
1FE0
17E0
0000
0000
0000
0000
E01C
E01C
E01C
E01C
E01C
E01C
E01C
E01C
E01C
E01C
E01C
E01C
601C
7038
7878
3FF0
0FE0
0300
0300
0300
0300
0300
0300
ENDCHAR
STARTCHAR 1EF9
ENCODING 7929
SWIDTH 480 0
DWIDTH 16 0
BBX 14 29 1 0
BITMAP
1FE0
17E0
0000
0000
0000
0000
E01C
E01C
E01C
E01C
E01C
E01C
E01C
E01C
E01C
E01C
E01C
E01C
601C
7038
7878
3FF0
0FE0
0300
0300
0300
0300
0300
0300
ENDCHAR
STARTCHAR 2013
ENCODING 8211
SWIDTH 570 0
DWIDTH 19 0
BBX 16 2 2 8
BITMAP
FFFF
FFFF
ENDCHAR
STARTCHAR 2014
ENCODING 8212
SWIDTH 780 0
DWIDTH 26 0
BBX 23 2 2 8
BITMAP
FFFFFE
FFFFFE
ENDCHAR
STARTCHAR 2018
ENCODING 8216
SWIDTH 210 0
DWIDTH 7 0
BBX 4 6 2 17
BITMAP
30
60
60
60
E0
E0
ENDCHAR
STARTCHAR 2019
ENCODING 8217
SWIDTH 210 0
DWIDTH 7 0
BBX 3 6 2 17
BITMAP
60
60
E0
C0
C0
C0
ENDCHAR
STARTCHAR 201A
ENCODING 8218
SWIDTH 210 0
DWIDTH 7 0
BBX 4 7 2 -4
BITMAP
70
60
60
E0
C0
C0
80
ENDCHAR
STARTCHAR 201C
ENCODING 8220
SWIDTH 360 0
DWIDTH 12 0
BBX 9 6 2 17
BITMAP
3180
3180
6180
6380
6300
E700
ENDCHAR
STARTCHAR 201D
ENCODING 8221
SWIDTH 360 0
DWIDTH 12 0
BBX 9 6 2 17
BITMAP
6380
6300
E300
C300
C600
C600
ENDCHAR
STARTCHAR 201E
ENCODING 8222
SWIDTH 390 0
DWIDTH 13 0
BBX 10 7 2 -4
BITMAP
71C0
6180
6180
E380
C300
C300
8200
ENDCHAR
STARTCHAR 2020
ENCODING 8224
SWIDTH 390 0
DWIDTH 13 0
BBX 10 16 2 8
BITMAP
0C00
0C00
0C00
0C00
FFC0
FFC0
0C00
0C00
0C00
0C00
0C00
0C00
0C00
0C00
0C00
0C00
ENDCHAR
STARTCHAR 2021
ENCODING 8225
SWIDTH 390 0
DWIDTH 13 0
BBX 10 16 2 8
BITMAP
0C00
0C00
0C00
0C00
FFC0
FFC0
0C00
0C00
0C00
0C00
FFC0
FFC0
0C00
0C00
0C00
0C00
ENDCHAR
STARTCHAR 2022
ENCODING 8226
SWIDTH 300 0
DWIDTH 10 0
BBX 7 7 2 6
BITMAP
10
7C
FC
FE
FC
FC
78
ENDCHAR
STARTCHAR 2026
ENCODING 8230
SWIDTH 630 0
DWIDTH 21 0
BBX 18 4 2 0
BITMAP
F1C380
F1E7C0
F3E7C0
F1E380
ENDCHAR
STARTCHAR 2030
ENCODING 8240
SWIDTH 1230 0
DWIDTH 41 0
BBX 38 24 2 0
BITMAP
0C00000000
3F80180000
71C0300000
E0C0600000
C060E00000
C060C00000
C061800000
C0E3800000
E0C3000000
7FC6000000
3F8E000000
000C000000
0018000000
00307003C0
0071FE0FF0
00638E0E38
00C3071818
01C703181C
018603380C
030603181C
070703181C
0603871C38
0C01FE0FF0
1800FC07E0
ENDCHAR
STARTCHAR 2039
ENCODING 8249
SWIDTH 330 0
DWIDTH 11 0
BBX 8 15 2 3
BITMAP
07
06
0C
1C
38
70
60
C0
E0
70
30
18
1C
0E
06
ENDCHAR
STARTCHAR 203A
ENCODING 8250
SWIDTH 330 0
DWIDTH 11 0
BBX 8 15 2 3
BITMAP
C0
E0
70
38
18
0C
0E
07
06
0E
1C
38
30
60
E0
ENDCHAR
STARTCHAR 2044
ENCODING 8260
SWIDTH 630 0
DWIDTH 21 0
BBX 18 23 2 0
BITMAP
0001C0
000180
000300
000700
000600
000C00
001C00
001800
003000
006000
00E000
00C000
018000
038000
030000
060000
0E0000
0C0000
180000
300000
700000
600000
C00000
ENDCHAR
STARTCHAR 20AC
ENCODING 8364
SWIDTH 630 0
DWIDTH 21 0
BBX 18 24 2 0
BITMAP
000780
007FC0
00FFC0
03E000
078000
070000
0E0000
0C0000
1C0000
FFFE00
FFFE00
180000
180000
FFFE00
FFFE00
1C0000
1C0000
0E0000
0E0000
070000
03C000
01F040
00FFC0
003FC0
ENDCHAR
STARTCHAR 2122
ENCODING 8482
SWIDTH 750 0
DWIDTH 25 0
BBX 22 13 2 11
BITMAP
FF0200
FFC38C
18E3CC
187BFC
187F3C
186F1C
18630C
18630C
18630C
18630C
18630C
18630C
18630C
ENDCHAR
STARTCHAR 2190
ENCODING 8592
SWIDTH 810 0
DWIDTH 27 0
BBX 24 16 2 4
BITMAP
010000
038000
070000
0E0000
1C0000
380000
700000
FFFFFF
FFFFFF
700000
380000
1C0000
0E0000
070000
038000
010000
ENDCHAR
STARTCHAR 2191
ENCODING 8593
SWIDTH 540 0
DWIDTH 18 0
BBX 15 24 2 0
BITMAP
0100
0380
07C0
0FE0
1F70
3B38
731C
E30E
4384
0380
0380
0380
0380
0380
0380
0380
0380
0380
0380
0380
0380
0380
0380
0380
ENDCHAR
STARTCHAR 2192
ENCODING 8594
SWIDTH 810 0
DWIDTH 27 0
BBX 23 14 2 5
BITMAP
000180
0001C0
0000E0
000070
000038
00001C
FFFFFE
FFFFFE
00001C
000038
000070
0000E0
0001C0
000180
ENDCHAR
STARTCHAR 2193
ENCODING 8595
SWIDTH 540 0
DWIDTH 18 0
BBX 15 24 2 -1
BITMAP
0380
0380
0380
0380
0380
0380
0380
0380
0380
0300
0300
0300
0300
0300
0300
C306
E30E
731C
3B38
1F70
0FE0
07C0
0380
0100
ENDCHAR
STARTCHAR 2194
ENCODING 8596
SWIDTH 870 0
DWIDTH 29 0
BBX 25 16 2 4
BITMAP
01000000
03806000
07007000
0E003800
1C001C00
38000E00
70000700
FFFFFF80
FFFFFF80
70000700
38000E00
1C001C00
0E003800
07007000
03806000
01000000
ENDCHAR
STARTCHAR 2195
ENCODING 8597
SWIDTH 570 0
DWIDTH 19 0
BBX 16 24 2 -1
BITMAP
0180
03C0
07E0
0FF0
1DB8
399C
E18F
C183
0180
0180
0180
0180
0180
0180
0180
0180
4182
E187
718E
399C
1DB8
0FF0
07C0
0180
ENDCHAR
STARTCHAR 2196
ENCODING 8598
SWIDTH 630 0
DWIDTH 21 0
BBX 17 18 2 3
BITMAP
FFE000
FFE000
E00000
F00000
F80000
DC0000
CE0000
C70000
C38000
C1C000
C0E000
007000
003800
001C00
000E00
000700
000380
000180
ENDCHAR
STARTCHAR 2197
ENCODING 8599
SWIDTH 630 0
DWIDTH 21 0
BBX 18 18 2 3
BITMAP
01FFC0
01FFC0
0003C0
0007C0
000FC0
001DC0
0039C0
0071C0
00E1C0
01C1C0
0381C0
070000
0E0000
1C0000
380000
700000
E00000
400000
ENDCHAR
STARTCHAR 2198
ENCODING 8600
SWIDTH 630 0
DWIDTH 21 0
BBX 18 17 2 4
BITMAP
C00000
E00000
700000
380000
1C0000
0E0000
0701C0
0381C0
01C1C0
00E1C0
0071C0
0039C0
001DC0
000FC0
0007C0
01FFC0
01FFC0
ENDCHAR
STARTCHAR 2199
ENCODING 8601
SWIDTH 630 0
DWIDTH 21 0
BBX 17 17 2 4
BITMAP
000180
000380
000700
000E00
001C00
003800
C07000
C0E000
C1C000
C38000
C70000
CE0000
DC0000
F80000
F00000
FFE000
FFE000
ENDCHAR
STARTCHAR 2202
ENCODING 8706
SWIDTH 540 0
DWIDTH 18 0
BBX 15 25 2 -1
BITMAP
0C00
1F00
0F80
03C0
01E0
0070
0078
0038
001C
071C
1FEC
3FFE
783E
701E
E00E
E00E
C00E
C00C
C00C
E01C
E038
7078
3FF0
1FC0
0200
ENDCHAR
STARTCHAR 2205
ENCODING 8709
SWIDTH 690 0
DWIDTH 23 0
BBX 20 20 2 2
BITMAP
01F830
0FFE70
1C03E0
3001C0
6003C0
600760
C00E20
C01C30
C03830
C07030
C0E030
C1C030
C38030
C70020
6E0060
7C00C0
3801C0
7C0380
E7FE00
C1F800
ENDCHAR
STARTCHAR 220F
ENCODING 8719
SWIDTH 570 0
DWIDTH 19 0
BBX 16 27 2 -3
BITMAP
FFFF
FFFF
300C
300C
300C
300C
300C
300C
300C
300C
300C
300C
300C
300C
300C
300C
300C
300C
300C
300C
300C
300C
300C
300C
300C
300C
300C
ENDCHAR
STARTCHAR 2211
ENCODING 8721
SWIDTH 450 0
DWIDTH 15 0
BBX 12 27 2 -3
BITMAP
FFF0
FFF0
E000
E000
7000
3000
3800
1800
1C00
0C00
0E00
0600
0700
0380
0300
0700
0600
0E00
0C00
1800
3800
3000
7000
6000
E000
FFF0
FFF0
ENDCHAR
STARTCHAR 2212
ENCODING 8722
SWIDTH 540 0
DWIDTH 18 0
BBX 15 2 2 10
BITMAP
FFFE
FFFE
ENDCHAR
STARTCHAR 221A
ENCODING 8730
SWIDTH 630 0
DWIDTH 21 0
BBX 18 27 2 -3
BITMAP
001FC0
001FC0
001800
001800
003800
003000
003000
003000
007000
006000
006000
00E000
00C000
00C000
C0C000
E1C000
618000
618000
718000
738000
330000
330000
3F0000
1E0000
1E0000
1E0000
0E0000
ENDCHAR
STARTCHAR 221E
ENCODING 8734
SWIDTH 780 0
DWIDTH 26 0
BBX 22 10 2 7
BITMAP
3F03F0
7F87F8
E0CE1C
C07C0C
C0780C
C0380C
C0780C
E0EC0C
73C738
3F03F0
ENDCHAR
STARTCHAR 222B
ENCODING 8747
SWIDTH 480 0
DWIDTH 16 0
BBX 12 28 2 -4
BITMAP
0030
00F0
01C0
0180
0180
0380
0380
0300
0300
0300
0300
0700
0600
0600
0600
0600
0E00
0C00
0C00
0C00
0C00
0C00
1C00
1800
1800
7800
F000
C000
ENDCHAR
STARTCHAR 2248
ENCODING 8776
SWIDTH 510 0
DWIDTH 17 0
BBX 14 10 2 6
BITMAP
FC00
FFFC
87FC
0020
0000
0000
0000
FE00
FFFC
03FC
ENDCHAR
STARTCHAR 2260
ENCODING 8800
SWIDTH 540 0
DWIDTH 18 0
BBX 15 15 2 3
BITMAP
00C0
00C0
01C0
FFFE
FFFE
0380
0300
0300
0600
FFFE
FFFE
0C00
0C00
1C00
1800
ENDCHAR
STARTCHAR 2264
ENCODING 8804
SWIDTH 540 0
DWIDTH 18 0
BBX 15 13 2 4
BITMAP
000E
00FE
0FF0
FF00
F000
FC00
3FC0
03FC
003E
0002
0000
FFFE
FFFE
ENDCHAR
STARTCHAR 2265
ENCODING 8805
SWIDTH 540 0
DWIDTH 18 0
BBX 15 13 2 4
BITMAP
C000
FC00
3FC0
03FC
003E
007E
07F0
7F00
F000
0000
0000
FFFE
FFFE
ENDCHAR
STARTCHAR 25CA
ENCODING 9674
SWIDTH 450 0
DWIDTH 15 0
BBX 12 18 2 3
BITMAP
0F00
1F00
1B80
3980
31C0
70C0
60E0
E060
C070
C070
6060
60E0
30C0
31C0
1980
1B80
0F00
0F00
ENDCHAR
ENDFONT
